<svg width="460" height="364" viewBox="0 0 460 364" fill="none" xmlns="http://www.w3.org/2000/svg">
<path d="M158.048 284.047C158.048 327.617 122.577 363.101 79.0239 363.101C35.4709 363.101 0 327.617 0 284.047C0 240.477 35.4709 204.992 79.0239 204.992C122.801 204.992 158.048 240.477 158.048 284.047Z" fill="white"/>
<path d="M119.658 308.078C118.087 319.981 108.658 328.515 94.7387 331.21C93.1672 331.435 91.8206 331.884 90.0246 332.333C90.0246 336.601 90.0246 340.868 90.0246 345.359C85.9836 345.359 82.3915 345.359 78.126 345.359C78.126 341.317 78.126 337.05 78.126 332.333C61.064 330.537 51.4105 321.553 47.8185 306.281C54.1045 304.709 59.9414 303.362 66.2274 301.789C66.6764 303.137 67.1256 304.26 67.5746 305.383C70.7176 314.591 81.0443 319.083 90.9223 315.489C95.4123 313.693 97.4331 310.324 97.8821 306.281C98.1066 302.463 96.3102 299.319 92.4937 297.522C87.5547 295.501 82.3911 293.704 77.2276 291.683C74.5336 290.56 71.84 289.886 69.146 288.763C55.9005 283.149 50.0634 273.491 51.6349 260.465C53.2064 247.664 61.2883 239.803 75.6562 237.108C76.3297 236.884 76.7791 236.884 77.6771 236.659C77.6771 233.515 77.6771 230.146 77.6771 226.777C81.9426 226.777 89.351 226.777 89.351 226.777L89.5751 236.659C89.5751 236.659 92.2693 236.884 98.7798 239.354C108.209 242.723 113.597 249.236 116.74 258.444C111.352 260.465 105.739 262.711 100.351 264.733C98.3307 261.813 96.7593 258.669 94.2898 256.198C90.6978 252.156 85.7586 251.033 80.5951 252.38C76.5541 253.503 73.8606 256.198 73.1871 260.241C72.5136 264.508 73.8605 267.877 78.126 269.674C82.3915 271.47 86.8816 273.042 91.1471 274.839C94.7391 276.187 98.5553 277.534 102.147 279.106C116.291 284.496 121.679 293.929 119.658 308.078Z" fill="#FB7101"/>
<path d="M119.658 308.078C118.087 319.981 108.658 328.515 94.7387 331.21C93.1672 331.435 91.8206 331.884 90.0246 332.333C90.0246 336.601 90.0246 340.868 90.0246 345.359C85.9836 345.359 82.3915 345.359 78.126 345.359C78.126 341.317 78.126 337.05 78.126 332.333C61.064 330.537 51.4105 321.553 47.8185 306.281C54.1045 304.709 59.9414 303.362 66.2274 301.789C66.6764 303.137 67.1256 304.26 67.5746 305.383C70.7176 314.591 81.0443 319.083 90.9223 315.489C95.4123 313.693 97.4331 310.324 97.8821 306.281C98.1066 302.463 96.3102 299.319 92.4937 297.522C87.5547 295.501 82.3911 293.704 77.2276 291.683C74.5336 290.56 71.84 289.886 69.146 288.763C55.9005 283.149 50.0634 273.491 51.6349 260.465C53.2064 247.664 61.2883 239.803 75.6562 237.108C76.3297 236.884 76.7791 236.884 77.6771 236.659C77.6771 233.515 77.6771 230.146 77.6771 226.777C81.9426 226.777 89.351 226.777 89.351 226.777L89.5751 236.659C89.5751 236.659 92.2693 236.884 98.7798 239.354C108.209 242.723 113.597 249.236 116.74 258.444C111.352 260.465 105.739 262.711 100.351 264.733C98.3307 261.813 96.7593 258.669 94.2898 256.198C90.6978 252.156 85.7586 251.033 80.5951 252.38C76.5541 253.503 73.8606 256.198 73.1871 260.241C72.5136 264.508 73.8605 267.877 78.126 269.674C82.3915 271.47 86.8816 273.042 91.1471 274.839C94.7391 276.187 98.5553 277.534 102.147 279.106C116.291 284.496 121.679 293.929 119.658 308.078Z" fill="white" fill-opacity="0.8"/>
<path d="M424.08 26.4454L356.73 2.63918C352.465 1.06707 347.975 0.393311 343.26 0.393311C338.77 0.393311 334.28 1.06707 329.79 2.63918L262.44 26.4454C247.174 31.8355 237.072 45.9845 237.072 61.7056V79.6726V172.876C237.072 198.03 248.97 222.285 272.543 244.744C290.278 261.588 310.708 273.94 324.852 281.352C329.566 283.822 335.179 285.394 340.567 285.844C340.567 285.844 342.587 285.844 343.934 285.844C344.608 285.844 345.281 285.844 345.954 285.844C351.342 285.394 356.955 284.047 361.669 281.352C375.813 273.94 396.242 261.813 413.977 244.744C437.55 222.285 449.449 198.03 449.449 172.876V79.6726V61.7056C449.449 45.9845 439.346 31.8355 424.08 26.4454Z" fill="#FB7101"/>
<path d="M424.08 26.4454L356.73 2.63918C352.465 1.06707 347.975 0.393311 343.26 0.393311C338.77 0.393311 334.28 1.06707 329.79 2.63918L262.44 26.4454C247.174 31.8355 237.072 45.9845 237.072 61.7056V79.6726V172.876C237.072 198.03 248.97 222.285 272.543 244.744C290.278 261.588 310.708 273.94 324.852 281.352C329.566 283.822 335.179 285.394 340.567 285.844C340.567 285.844 342.587 285.844 343.934 285.844C344.608 285.844 345.281 285.844 345.954 285.844C351.342 285.394 356.955 284.047 361.669 281.352C375.813 273.94 396.242 261.813 413.977 244.744C437.55 222.285 449.449 198.03 449.449 172.876V79.6726V61.7056C449.449 45.9845 439.346 31.8355 424.08 26.4454Z" fill="white" fill-opacity="0.8"/>
<path d="M412.407 49.1284L356.057 29.1402C352.465 27.7926 348.648 27.1189 344.832 27.1189C341.015 27.1189 337.199 27.7926 333.607 29.1402L277.257 49.1284C264.461 53.6202 255.93 65.5233 255.93 78.774V93.8213V171.978C255.93 193.089 266.032 213.526 285.564 232.167C300.381 246.316 317.668 256.647 329.342 262.936C333.383 264.957 337.872 266.304 342.587 266.529C342.587 266.529 344.382 266.529 345.505 266.529C346.178 266.529 346.628 266.529 347.302 266.529C352.016 266.304 356.506 264.957 360.547 262.936C372.445 256.872 389.507 246.541 404.324 232.167C424.08 213.302 433.958 193.089 433.958 171.978V93.8213V78.774C433.958 65.7479 425.203 53.8448 412.407 49.1284Z" fill="white"/>
<path d="M255.93 187.924C255.93 187.924 284.441 212.853 294.095 231.943C303.524 251.033 317.443 286.517 330.015 300.217C342.138 313.019 348.648 320.655 370.2 324.697C391.752 328.74 397.14 329.414 414.875 338.846C432.611 348.054 442.489 363.102 442.489 363.102L257.726 362.877L249.419 352.995L255.032 351.648L228.092 218.917L255.93 187.924Z" fill="#FB7101"/>
<path d="M255.93 187.924C255.93 187.924 284.441 212.853 294.095 231.943C303.524 251.033 317.443 286.517 330.015 300.217C342.138 313.019 348.648 320.655 370.2 324.697C391.752 328.74 397.14 329.414 414.875 338.846C432.611 348.054 442.489 363.102 442.489 363.102L257.726 362.877L249.419 352.995L255.032 351.648L228.092 218.917L255.93 187.924Z" fill="white" fill-opacity="0.8"/>
<path d="M270.522 205.216C262.44 193.538 244.031 174.448 228.316 167.71L223.153 157.828C223.153 157.828 214.847 175.571 212.377 181.635C208.561 190.843 198.458 219.365 198.458 219.365L183.192 215.772L189.478 160.074L182.07 167.036C182.07 167.036 158.497 175.571 150.415 182.982C142.333 190.394 120.557 212.852 114.72 222.51C108.658 232.167 106.189 238.006 109.556 248.113C112.924 258.219 121.006 265.181 138.741 262.935C150.864 261.588 153.558 260.914 154.007 260.689L154.68 270.122L143.231 361.978C143.231 361.978 145.701 362.203 192.172 362.877C238.868 363.55 257.726 362.652 257.726 362.652C257.726 362.652 242.684 281.576 243.133 276.186C243.807 270.796 245.378 266.08 245.378 266.08C245.378 266.08 269.4 270.122 278.38 253.278C287.135 236.883 278.604 216.895 270.522 205.216ZM184.315 281.351L182.967 253.727L189.253 255.748L184.315 281.351Z" fill="#111827"/>
<path d="M304.87 255.749C304.87 255.749 316.096 288.539 336.75 307.404C357.179 326.269 372.894 324.922 381.874 326.943C390.854 328.965 417.12 331.884 442.938 363.102C442.938 363.102 423.856 327.842 394.222 315.489C364.588 303.137 355.608 305.832 341.464 300.217C322.831 292.581 304.87 255.749 304.87 255.749Z" fill="#111827"/>
<path d="M304.87 255.749C304.87 255.749 316.096 288.539 336.75 307.404C357.179 326.269 372.894 324.922 381.874 326.943C390.854 328.965 417.12 331.884 442.938 363.102C442.938 363.102 423.856 327.842 394.222 315.489C364.588 303.137 355.608 305.832 341.464 300.217C322.831 292.581 304.87 255.749 304.87 255.749Z" fill="white" fill-opacity="0.1"/>
<path d="M215.744 112.911C215.744 112.911 213.499 121.446 217.54 129.081C217.54 129.081 220.683 126.162 224.724 126.836C228.765 127.509 231.684 131.777 230.337 136.717C228.99 141.658 226.071 143.23 224.275 143.23L223.153 157.829L217.765 168.384C217.765 168.384 207.662 174.897 197.56 172.202C187.457 169.507 188.355 166.812 188.355 166.812L189.029 162.545V159.85C189.029 159.85 179.6 157.829 180.273 143.904C180.947 129.98 183.865 116.954 183.865 116.954L186.11 109.093C186.11 109.093 190.151 111.788 197.784 112.462C205.417 113.136 215.744 112.911 215.744 112.911Z" fill="white"/>
<path d="M125.72 225.43L145.251 225.205L149.068 213.302C149.068 213.302 131.782 216.222 125.72 225.43Z" fill="white"/>
<path d="M293.197 117.403C293.197 117.403 313.177 142.557 321.708 142.557C330.239 142.557 340.567 134.022 356.282 118.75C372.221 103.478 382.997 88.2063 382.997 88.2063L402.079 93.3719C402.079 93.3719 385.242 122.793 368.18 143.679C350.893 164.566 333.831 180.063 322.157 179.613C310.483 179.389 298.136 172.876 288.033 154.235C278.155 135.37 275.686 120.996 275.686 120.996C275.686 120.996 291.626 116.729 293.197 117.403Z" fill="#FB7101"/>
<path d="M293.197 117.403C293.197 117.403 313.177 142.557 321.708 142.557C330.239 142.557 340.567 134.022 356.282 118.75C372.221 103.478 382.997 88.2063 382.997 88.2063L402.079 93.3719C402.079 93.3719 385.242 122.793 368.18 143.679C350.893 164.566 333.831 180.063 322.157 179.613C310.483 179.389 298.136 172.876 288.033 154.235C278.155 135.37 275.686 120.996 275.686 120.996C275.686 120.996 291.626 116.729 293.197 117.403Z" fill="white" fill-opacity="0.8"/>
<path d="M185.886 216.895L195.09 192.864L192.845 183.656L198.907 175.346L203.397 185.678L199.805 194.212L198.009 218.917L185.886 216.895Z" fill="#FB7101"/>
<path d="M182.967 254.626L184.315 281.352L189.254 255.749L182.967 254.626Z" fill="#FB7101"/>
<path d="M359.649 241.824C356.731 242.498 353.812 243.172 351.118 243.621C350.22 243.846 349.77 244.295 349.77 245.193C349.546 247.888 349.097 250.583 348.648 253.278C348.423 253.952 347.974 254.626 347.525 255.075C345.28 256.647 343.035 257.995 340.79 259.567C340.341 259.791 339.668 260.016 339.219 260.016C336.301 259.342 333.382 258.668 330.239 257.995C329.79 257.995 329.116 258.219 328.667 258.444C326.871 260.914 325.301 263.609 323.729 266.08C323.28 266.754 323.28 267.203 323.729 267.877C325.525 270.122 327.321 272.593 329.117 274.839C329.341 275.288 329.565 275.962 329.565 276.636C329.116 279.331 328.668 282.026 328.219 284.721C327.995 285.394 327.769 286.068 327.32 286.293C325.075 287.865 322.607 289.212 320.362 290.784C319.688 291.234 319.238 291.683 319.463 292.581C320.136 295.501 320.81 298.42 321.259 301.116C321.484 302.014 321.932 302.463 322.83 302.463C325.524 302.688 328.218 303.137 330.912 303.586C331.81 303.586 332.26 304.035 332.709 304.933C334.056 307.179 335.403 309.201 336.974 311.222C337.648 311.896 337.647 312.569 337.423 313.468C336.749 316.163 336.076 319.082 335.402 321.778C335.178 322.676 335.403 323.125 336.077 323.574C338.546 325.146 341.015 326.719 343.485 328.291C344.383 328.74 344.832 328.74 345.505 328.066C347.75 326.269 349.995 324.473 352.465 322.9C352.914 322.451 353.811 322.451 354.26 322.451C356.954 322.901 359.648 323.574 362.118 324.248C362.791 324.473 363.465 324.922 363.914 325.371C365.486 327.841 367.057 330.312 368.404 332.782C368.853 333.456 369.302 333.905 370.2 333.681C373.119 333.007 376.038 332.333 378.732 331.884C379.63 331.659 379.853 331.435 380.078 330.536C380.302 327.617 380.751 324.697 381.2 321.553C381.2 320.879 381.874 320.205 382.323 319.756C384.343 318.184 386.589 316.837 388.61 315.04C389.508 314.366 390.181 314.142 391.079 314.366C393.773 315.04 396.467 315.489 398.937 316.163C399.835 316.387 400.283 316.163 400.732 315.489C402.304 313.019 403.876 310.548 405.447 308.078C405.896 307.179 405.896 306.73 405.222 306.056C403.426 303.811 401.855 301.565 400.059 299.319C399.386 298.645 399.385 297.971 399.61 297.073C400.283 294.378 400.732 291.683 401.405 288.988C401.63 288.539 401.854 287.865 402.528 287.416C404.997 285.844 407.692 284.271 410.162 282.699C410.835 282.25 411.059 281.801 410.835 280.903C410.161 277.983 409.488 275.063 409.039 272.368C408.815 271.47 408.365 271.245 407.467 271.021C404.549 270.796 401.631 270.347 398.712 269.898C398.039 269.898 397.365 269.224 397.14 268.775C395.569 266.529 393.773 264.283 392.202 262.037C391.977 261.588 391.752 260.914 391.752 260.241C392.426 257.096 393.099 253.728 393.997 250.583C391.079 248.787 388.161 246.99 385.242 245.193C384.793 244.969 384.119 245.193 383.67 245.418C381.201 247.215 378.955 249.011 376.71 250.808C376.261 251.033 375.588 251.257 375.139 251.257C372.445 251.033 369.751 250.583 366.833 250.134C366.159 250.134 365.486 249.685 365.262 249.011C363.69 246.765 362.119 244.295 360.772 242.049C360.996 241.824 360.547 241.6 359.649 241.824ZM381.874 283.373C383.895 292.581 378.058 301.789 368.629 303.811C359.2 305.832 350.22 299.993 348.199 290.56C346.179 281.352 352.24 272.368 361.445 270.347C370.649 268.326 379.854 274.165 381.874 283.373Z" fill="white"/>
<path d="M184.763 113.81L186.11 109.318C186.11 109.318 194.417 112.687 202.723 113.136C211.03 113.585 219.785 113.136 219.785 113.136C219.785 113.136 217.54 122.569 220.907 127.51C220.907 127.51 222.479 126.836 224.5 126.836C226.52 126.836 227.418 127.285 228.99 129.306C228.99 129.306 233.255 122.793 234.153 118.077C235.051 113.361 234.602 109.543 231.684 107.521C228.541 105.275 226.52 104.826 226.52 104.826C226.52 104.826 224.275 95.169 218.214 92.9231C212.152 90.6772 204.744 90.4527 200.478 94.2706C200.478 94.2706 193.294 90.4526 188.131 93.8214C182.069 98.0886 181.62 102.58 182.069 105.949C182.294 109.318 183.865 111.789 184.763 113.81Z" fill="#111827"/>
<path d="M368.853 331.659C367.73 331.659 367.282 330.986 367.057 330.312C365.71 327.841 364.139 325.371 362.567 322.9C362.343 322.451 361.669 322.227 361.22 322.002C358.751 321.328 356.057 320.655 353.363 320.205C352.914 320.205 352.24 320.205 352.016 320.43C349.546 322.227 347.077 324.248 345.281 325.595C344.607 326.045 343.485 326.494 342.587 325.82C340.342 324.248 338.097 322.676 335.178 321.104C334.28 320.43 333.831 319.756 334.056 318.633C334.505 317.286 334.73 315.938 334.954 314.591C335.403 313.243 335.628 311.671 336.077 310.324C336.301 309.65 336.077 309.201 335.628 308.751C334.056 306.73 332.709 304.484 331.362 302.238C330.913 301.565 330.689 301.34 330.015 301.34C328.668 301.115 327.097 300.891 325.75 300.891C324.403 300.666 323.28 300.442 321.933 300.442C321.035 300.442 320.137 299.993 319.913 298.645C319.239 295.501 318.791 292.806 318.117 290.111C317.668 288.763 318.566 288.089 319.24 287.64C321.26 286.517 323.729 284.945 326.198 283.148C326.423 282.924 326.872 282.475 326.872 281.801C327.321 279.106 327.77 276.411 328.219 273.716C328.219 273.267 328.219 272.817 327.77 272.368C326.199 270.347 324.627 268.101 322.382 265.406C321.709 264.508 321.709 263.834 322.158 262.936C322.831 261.813 323.505 260.69 324.403 259.567C325.301 258.219 326.198 256.647 327.321 255.3C327.77 254.626 328.892 254.401 329.566 254.401C331.137 254.626 332.709 255.075 334.056 255.524C335.403 255.973 336.975 256.198 338.322 256.423C338.546 256.423 339.22 256.423 339.444 256.198C341.914 254.626 344.159 253.054 346.179 251.706C346.628 251.482 347.077 250.808 347.077 250.359C347.526 247.439 347.975 244.519 348.2 242.274C348.424 240.926 348.873 240.477 349.995 240.252C352.689 239.803 355.608 239.129 358.527 238.456C360.098 238.006 360.546 238.905 360.995 239.579C362.118 241.6 363.689 244.07 365.485 246.541C365.71 246.99 366.159 247.215 366.608 247.215C369.077 247.664 371.772 248.113 374.69 248.337C375.139 248.337 375.588 248.113 375.813 247.888C376.935 246.99 378.058 246.316 379.18 245.418C380.303 244.519 381.65 243.621 382.772 242.498C383.446 242.049 384.568 241.824 385.017 242.274C387.262 243.621 389.507 245.193 391.752 246.541L393.548 247.664C393.772 248.337 393.324 251.032 393.324 251.032C392.651 253.503 392.201 255.749 391.752 258.219C391.752 258.444 391.753 259.118 391.977 259.567C393.548 262.037 395.119 264.283 396.915 266.304C397.14 266.754 397.813 266.978 398.038 267.203C400.732 267.652 403.651 267.877 406.794 268.326C408.141 268.55 408.59 268.999 408.814 270.122C409.263 272.817 409.936 275.737 410.61 278.657C410.834 279.78 410.61 280.453 409.487 281.127C406.345 282.924 404.1 284.496 401.855 285.843C401.63 286.068 401.182 286.517 401.182 286.966C400.957 288.089 400.732 289.212 400.508 290.56C400.283 292.132 399.834 293.479 399.61 295.052C399.385 295.725 399.385 296.175 399.834 296.624C400.732 297.747 401.63 298.87 402.528 299.993C403.426 301.115 404.324 302.238 404.998 303.361C405.671 304.035 405.896 304.933 405.222 306.056C403.651 308.302 402.079 310.773 400.508 313.468C400.059 314.142 399.386 314.815 397.814 314.591C396.467 314.366 395.344 313.917 393.997 313.692C392.65 313.468 391.304 313.019 389.957 312.794C389.059 312.569 388.833 312.794 387.935 313.243C386.813 314.142 385.691 315.04 384.344 315.938C383.446 316.612 382.548 317.286 381.425 317.96C380.976 318.409 380.527 318.858 380.527 319.307C380.078 322.451 379.629 325.595 379.405 328.066C379.18 329.189 378.732 329.863 377.609 330.087C374.466 330.761 371.772 331.21 369.078 331.884C369.302 331.435 369.077 331.659 368.853 331.659ZM352.914 318.858C356.282 319.532 358.975 319.981 361.445 320.655C362.118 320.879 363.016 321.328 363.69 322.002C365.261 324.473 366.833 327.168 368.18 329.638C368.629 330.536 368.853 330.312 369.302 330.087C371.996 329.413 374.914 328.74 377.833 328.291C378.506 328.066 378.507 328.066 378.507 327.392C378.732 324.697 379.181 321.553 379.63 318.409C379.854 317.51 380.528 316.612 380.977 316.163C381.875 315.489 382.772 314.815 383.895 314.141C385.017 313.243 386.14 312.569 387.262 311.671C388.385 310.773 389.058 310.548 390.405 310.997C391.752 311.446 393.1 311.671 394.447 311.896C395.794 312.12 396.916 312.569 398.263 312.794C400.957 309.65 402.528 307.179 404.1 304.933C404.324 304.484 404.324 304.26 403.875 303.81C402.977 302.688 402.08 301.565 401.182 300.442C400.284 299.319 399.385 298.196 398.487 297.073C397.814 296.174 397.589 295.501 398.038 294.153C398.487 292.581 398.712 291.234 398.937 289.661C399.161 288.539 399.385 287.191 399.61 286.068C399.834 285.394 400.283 284.496 400.957 284.047C403.202 282.699 405.671 281.127 408.59 279.33C409.039 279.106 409.264 278.881 409.039 278.208C408.366 275.063 407.692 272.368 407.243 269.673C407.018 268.999 407.018 268.999 406.345 268.999C403.202 268.775 400.283 268.326 397.589 267.877C396.691 267.652 396.018 267.203 395.569 266.529C393.998 264.508 392.426 262.262 390.63 259.791C390.181 259.342 389.956 258.219 390.18 257.546C390.629 255.075 391.303 252.829 391.752 250.359L392.202 248.337L390.855 247.439C388.61 246.092 386.365 244.519 384.12 243.172C382.099 244.295 380.752 245.193 379.63 246.092C378.507 246.99 377.385 247.888 376.262 248.562C375.589 249.011 374.915 249.236 374.242 249.236C371.099 248.787 368.404 248.562 365.935 248.113C365.037 247.888 364.364 247.439 363.915 246.765C362.119 244.295 360.547 241.6 359.425 239.803C355.384 240.028 352.464 240.701 349.771 241.151C349.097 241.375 349.097 241.375 348.873 242.049C348.648 244.295 348.199 247.214 347.75 250.134C347.526 251.032 346.852 251.931 346.403 252.38C344.383 253.728 342.362 255.3 339.668 256.872C338.995 257.321 338.097 257.546 337.648 257.321C336.301 257.096 334.73 256.647 333.383 256.423C331.811 255.973 330.464 255.749 328.893 255.3C327.097 256.872 326.198 258.444 325.3 259.791C324.627 260.914 323.953 262.037 323.055 263.16C322.831 263.609 322.831 263.609 323.055 264.059C325.076 266.754 326.872 268.999 328.443 271.021C328.892 271.695 329.117 272.593 329.117 273.267C328.668 275.962 328.219 278.657 327.77 281.352C327.546 282.025 327.096 282.924 326.423 283.373C323.953 285.17 321.259 286.742 319.463 287.865C318.79 288.314 318.79 288.314 319.015 288.988C319.688 291.683 320.361 294.602 320.81 297.522C321.035 298.196 321.035 298.196 321.708 298.42C323.055 298.645 324.403 298.645 325.525 298.87C326.872 299.094 328.219 299.319 329.79 299.319C330.913 299.543 331.587 299.993 332.26 300.891C333.607 303.137 335.178 305.158 336.525 307.179C337.199 308.078 337.424 308.976 337.199 309.874C336.75 311.222 336.526 312.794 336.077 314.141C335.852 315.489 335.403 316.837 335.178 318.184C334.954 318.633 335.179 318.858 335.628 319.307C338.321 321.104 340.791 322.676 343.036 324.023C343.485 324.248 343.709 324.473 344.158 323.799C345.954 322.227 348.424 320.43 351.118 318.409C351.342 319.082 352.016 318.858 352.914 318.858ZM363.69 302.014C355.159 302.014 348.199 296.175 346.403 287.865C344.383 278.208 350.444 268.775 360.098 266.754C361.445 266.529 362.568 266.304 363.915 266.304C372.446 266.304 379.405 272.144 381.425 280.453C382.548 285.17 381.649 289.886 378.955 293.929C376.486 297.971 372.445 300.666 367.73 301.789C366.159 301.789 365.037 302.014 363.69 302.014ZM363.915 267.652C362.792 267.652 361.445 267.877 360.322 268.101C351.342 270.122 345.73 278.657 347.526 287.64C349.097 295.501 355.832 300.891 363.69 300.891C364.812 300.891 366.16 300.666 367.282 300.442C371.548 299.543 375.364 296.848 377.609 293.255C380.079 289.662 380.752 285.17 379.854 280.903C378.283 273.042 371.548 267.652 363.915 267.652Z" fill="#111827"/>
<path d="M325.525 175.796C322.157 175.796 318.565 174.897 314.973 173.325C308.462 170.406 302.851 165.689 297.912 159.176C292.075 151.316 287.36 142.332 283.543 130.429C282.645 127.509 281.747 124.59 280.849 121.445C280.4 120.098 279.951 118.526 279.727 117.178C280.176 116.28 292.523 112.911 292.523 112.911C293.87 112.462 294.993 112.237 296.34 111.788C297.462 111.564 298.135 112.013 298.36 112.462C304.197 120.322 311.606 127.734 321.035 135.145C323.504 137.167 326.199 137.616 329.341 136.942C332.035 136.268 334.729 134.921 338.097 132.899C345.281 128.408 351.566 122.568 356.73 117.403C366.159 107.97 375.812 97.1899 386.139 83.9393C386.588 83.2655 387.262 82.5918 388.609 83.0409C392.875 84.1639 397.139 85.5114 401.405 86.6344L405.895 87.7573C394.221 111.114 382.099 128.857 369.527 143.904C363.241 151.54 355.383 160.299 345.73 167.261C343.036 169.283 340.117 171.079 336.525 172.876C332.933 174.897 329.341 175.796 325.525 175.796ZM281.074 117.178C281.523 118.526 281.747 119.649 282.196 120.772C283.094 123.916 283.767 126.835 284.89 129.755C288.706 141.434 293.197 150.417 299.034 158.053C303.973 164.566 309.361 169.058 315.647 171.978C322.606 175.122 329.566 175.122 336.076 171.753C339.668 169.956 342.587 168.16 345.056 166.138C354.485 159.176 362.343 150.642 368.404 143.006C380.976 127.958 393.099 110.216 405.671 89.1048C405.447 88.8803 401.181 87.7573 401.181 87.7573C396.916 86.6344 392.65 85.5114 388.384 84.1639C387.935 83.9393 387.935 83.7147 387.262 84.6131C376.935 97.6392 367.281 108.644 357.628 118.077C352.464 123.242 346.178 129.081 338.77 133.798C335.402 136.044 332.484 137.391 329.565 138.065C325.973 138.963 322.831 138.289 320.137 136.044C310.708 128.408 303.074 120.996 297.237 112.911C295.441 113.136 294.094 113.36 292.747 113.809L281.074 117.178Z" fill="#111827"/>
<path d="M72.5138 178.491C71.8403 177.592 72.0646 177.368 72.2891 177.143L129.761 158.502C130.21 158.278 130.434 158.502 130.659 158.952C130.883 159.401 130.659 159.625 130.21 159.85L72.5138 178.491C72.7383 178.491 72.7383 178.491 72.5138 178.491Z" fill="#111827"/>
<path d="M139.638 121.446C139.189 121.446 61.962 72.0368 61.962 72.0368C61.7375 71.8122 61.5127 71.363 61.7372 71.1384C61.9617 70.9138 62.4105 70.6892 62.635 70.9138L140.087 120.323C140.312 120.548 140.537 120.997 140.312 121.221C140.088 121.446 139.863 121.446 139.638 121.446Z" fill="#111827"/>
<path d="M168.375 72.4859C168.15 72.4859 167.701 72.2614 167.701 71.8122L164.334 44.4125C164.334 43.9633 164.558 43.7388 165.007 43.7388C165.456 43.7388 165.681 43.9633 165.681 44.4125L169.048 71.8122C169.048 72.2614 168.824 72.4859 168.375 72.4859Z" fill="#111827"/>
<path d="M224.5 140.086C224.051 139.862 219.336 136.044 219.336 136.044C219.336 134.921 224.5 130.429 224.5 130.429C224.724 130.204 225.173 130.204 225.398 130.429C225.622 130.654 225.622 131.103 225.398 131.327L220.683 135.37L224.949 138.739C225.173 138.963 225.173 139.413 224.949 139.637C224.724 139.862 224.5 140.086 224.5 140.086Z" fill="#111827"/>
<path d="M189.477 138.065C188.13 136.942 188.355 134.472 190.6 124.59C190.824 123.916 190.825 123.467 190.825 123.467C190.825 123.018 191.049 122.793 191.498 122.793C191.947 122.793 192.172 123.018 192.172 123.467C192.172 123.692 192.172 123.692 191.947 124.814C189.927 133.124 189.702 135.819 189.702 136.493C190.6 136.268 192.396 135.37 193.294 134.921C193.519 134.696 193.968 134.921 194.192 135.146C194.417 135.37 194.192 135.819 193.967 136.044C193.743 136.493 191.049 138.065 189.477 138.065Z" fill="#111827"/>
<path d="M195.09 143.904C194.866 143.904 189.702 143.006 186.559 143.006C186.11 143.006 185.886 142.781 185.886 142.332C185.886 141.883 186.11 141.658 186.559 141.658C189.927 141.883 195.09 142.557 195.315 142.557C195.764 142.557 195.988 143.006 195.764 143.23C195.539 143.68 195.315 143.904 195.09 143.904Z" fill="#111827"/>
<path d="M202.275 131.103C201.601 131.103 201.152 130.429 201.377 129.98L201.601 126.836C201.601 126.162 202.275 125.713 202.724 125.938C203.397 125.938 203.846 126.612 203.621 127.061L203.397 130.205C203.622 130.654 202.948 131.328 202.275 131.103Z" fill="#111827"/>
<path d="M185.437 129.755C184.764 129.755 184.315 129.082 184.539 128.632L184.764 125.488C184.764 124.814 185.437 124.365 185.886 124.59C186.56 124.59 187.009 125.264 186.784 125.713L186.56 128.857C186.784 129.306 186.111 129.755 185.437 129.755Z" fill="#111827"/>
<path d="M205.642 124.59L200.478 124.141C200.029 124.141 199.805 123.692 199.805 123.467C199.805 123.018 200.254 122.793 200.478 122.793L205.642 123.242C206.091 123.242 206.315 123.692 206.315 123.916C206.091 124.365 205.867 124.59 205.642 124.59Z" fill="#111827"/>
<path d="M188.805 123.467L183.641 123.242C183.192 123.242 182.967 123.018 182.967 122.568C182.967 122.119 183.192 121.895 183.641 121.895L188.805 122.119C189.254 122.119 189.478 122.344 189.478 122.793C189.478 123.018 189.254 123.467 188.805 123.467Z" fill="#111827"/>
<path d="M201.152 173.55C191.723 173.325 187.906 167.935 187.906 167.71C187.681 167.486 187.682 167.036 188.131 166.812C188.355 166.587 188.804 166.587 189.028 167.036C189.028 167.036 192.62 172.202 200.702 172.427C204.743 172.427 213.948 171.528 217.989 167.71C218.214 167.486 218.663 167.486 218.887 167.71C219.112 167.935 219.112 168.384 218.887 168.609C214.622 172.427 205.866 173.55 201.152 173.55Z" fill="#111827"/>
<path d="M393.099 235.087C392.426 234.637 392.425 234.188 392.65 233.964C415.549 213.751 427.223 192.415 427.223 170.405V60.8068C427.223 52.2725 421.386 44.4119 412.855 41.4923L346.627 17.9106C341.688 16.1139 336.076 16.1139 331.137 17.9106L264.91 41.4923C256.379 44.4119 250.542 52.2725 250.542 60.8068V145.027C250.542 145.476 250.317 145.701 249.868 145.701C249.419 145.701 249.195 145.476 249.195 145.027V60.8068C249.195 51.5987 255.256 43.289 264.461 40.1448L330.688 16.5631C336.076 14.7664 341.913 14.7664 347.077 16.5631L413.304 40.1448C422.284 43.289 428.57 51.5987 428.57 60.8068V170.405C428.57 192.639 416.671 214.424 393.548 234.862C393.323 235.086 393.099 235.087 393.099 235.087Z" fill="#111827"/>
<path d="M194.866 161.647C192.845 161.647 190.825 161.422 188.804 160.973C183.641 159.176 180.722 155.583 179.824 150.642C178.926 145.701 179.6 140.76 180.049 136.044L180.273 133.349C181.171 125.264 182.294 116.28 185.212 109.093C185.437 108.644 185.661 108.644 186.11 108.644C186.559 108.869 186.559 109.093 186.559 109.543C183.865 116.505 182.743 125.488 181.845 133.349L181.62 135.819C180.946 140.536 180.498 145.476 181.171 150.193C182.069 154.684 184.538 157.829 188.355 159.176C193.069 160.524 197.56 160.075 200.927 159.625C201.376 159.625 201.601 159.85 201.601 160.075C201.601 160.524 201.376 160.748 201.152 160.748C199.58 161.197 197.335 161.647 194.866 161.647Z" fill="#111827"/>
<path d="M197.784 220.039C197.335 220.039 197.111 219.59 197.111 219.366L198.907 194.212C198.907 193.987 202.499 185.453 202.499 185.453C202.723 185.004 202.948 185.004 203.397 185.004C203.846 185.228 203.846 185.453 203.846 185.902L200.254 194.212L198.458 219.141C198.458 219.815 198.233 220.039 197.784 220.039Z" fill="#111827"/>
<path d="M199.805 194.885C199.58 194.885 192.621 193.538 192.621 193.538C192.172 193.538 191.947 193.089 192.172 192.64C192.172 192.19 192.621 191.966 193.07 192.19L200.03 193.538C200.479 193.538 200.703 193.987 200.478 194.436C200.254 194.661 200.029 194.885 199.805 194.885Z" fill="#111827"/>
<path d="M183.641 216.895C182.968 216.671 182.967 216.222 182.967 215.997L191.947 192.64L190.151 183.207C190.151 182.758 190.376 182.534 190.6 182.309C191.049 182.309 191.274 182.534 191.499 182.758L193.519 192.415C193.519 192.865 184.539 216.446 184.539 216.446C184.314 216.895 184.09 216.895 183.641 216.895Z" fill="#111827"/>
<path d="M408.365 241.6C407.691 241.151 407.692 240.701 407.916 240.477C430.815 218.467 442.489 194.886 442.489 170.406V60.807C442.489 45.7597 432.611 32.2844 418.019 27.1189L351.791 3.53726C343.485 0.617629 334.28 0.617629 326.198 3.53726L259.971 27.1189C245.378 32.2844 235.5 45.7597 235.5 60.807V68.6676C235.5 69.1167 235.276 69.3413 234.827 69.3413C234.378 69.3413 234.153 69.1167 234.153 68.6676V60.807C234.153 45.3105 244.256 31.1615 259.522 25.7714L325.749 2.18973C334.28 -0.729909 343.709 -0.729909 352.24 2.18973L418.467 25.7714C433.509 31.1615 443.836 45.0859 443.836 60.807V170.406C443.836 195.335 432.162 219.366 408.814 241.375C408.59 241.6 408.365 241.6 408.365 241.6Z" fill="#111827"/>
<path d="M223.152 143.904C222.703 143.904 222.479 143.904 222.03 143.904C220.458 143.68 218.887 142.781 217.765 141.209C217.54 140.985 217.54 140.536 217.989 140.311C218.214 140.086 218.663 140.086 218.887 140.536C219.785 141.659 220.908 142.332 222.255 142.557C222.704 142.557 223.377 142.557 223.826 142.557C225.173 142.332 226.296 141.659 227.418 140.536C228.541 139.413 229.214 137.841 229.439 136.044C229.888 133.798 229.439 131.552 228.092 129.756C227.867 129.306 227.643 129.082 227.194 128.857C226.52 128.183 225.622 127.734 224.5 127.51C222.479 127.285 219.336 127.959 217.765 129.98C217.091 130.878 216.642 130.879 216.417 130.654C216.193 130.429 215.969 129.98 216.193 129.756C218.663 126.836 222.255 125.938 224.724 126.162C226.071 126.387 227.194 127.061 228.092 127.734C228.541 128.183 228.765 128.408 229.214 128.857C230.561 130.878 231.01 133.349 230.786 136.044C230.561 138.065 229.663 139.862 228.316 141.209C227.194 142.557 225.622 143.455 224.051 143.68C223.826 143.904 223.377 143.904 223.152 143.904Z" fill="#111827"/>
<path d="M228.765 130.205C228.091 129.98 228.092 129.531 228.092 129.082C237.072 114.259 233.255 110.216 230.786 107.97C228.765 105.949 226.52 105.5 226.52 105.5C226.071 105.5 225.847 105.051 226.071 104.826C226.071 104.377 226.52 104.152 226.745 104.377C226.745 104.377 229.439 104.826 231.235 106.847C234.378 109.992 238.643 114.483 229.214 130.205C229.214 129.98 228.989 130.205 228.765 130.205Z" fill="#111827"/>
<path d="M217.54 130.205C216.866 129.531 212.826 123.018 215.071 113.361C215.071 112.912 215.519 112.687 215.968 112.912C216.417 112.912 216.642 113.361 216.417 113.81C214.172 123.018 217.989 129.306 217.989 129.306C218.214 129.531 217.989 129.98 217.765 130.205C217.765 130.205 217.764 130.205 217.54 130.205Z" fill="#111827"/>
<path d="M222.928 158.503C222.479 158.503 222.255 158.054 222.255 157.829L223.377 143.231C223.377 142.782 223.602 142.557 224.051 142.557C224.5 142.557 224.724 143.006 224.724 143.231L223.602 157.829C223.602 158.278 223.377 158.503 222.928 158.503Z" fill="#111827"/>
<path d="M206.989 194.886C206.315 194.436 197.56 174.224 197.56 174.224L185.437 192.191C185.212 192.415 184.763 192.64 184.539 192.415C184.314 192.191 184.09 191.741 184.314 191.517L197.111 172.651C198.233 172.651 207.438 194.212 207.438 194.212C207.662 194.661 207.438 194.886 206.989 195.11C207.213 194.886 206.989 194.886 206.989 194.886Z" fill="#111827"/>
<path d="M220.459 224.756C219.785 224.531 219.785 224.082 219.785 223.633L227.867 210.607L222.928 196.907C223.377 196.009 235.5 191.966 235.5 191.966L227.867 168.609L222.928 159.176C222.255 160.748 220.683 163.893 218.887 167.935C214.622 177.368 208.336 191.741 202.723 207.463C201.376 211.281 200.254 214.874 198.907 219.59C198.907 220.039 198.458 220.04 198.009 220.04C197.56 220.04 197.56 219.59 197.56 219.141C198.907 214.425 200.029 210.831 201.601 207.013C207.213 191.292 213.499 176.694 217.765 167.486C220.459 161.422 222.48 157.604 222.48 157.604C223.602 157.604 229.439 168.384 229.439 168.384L237.296 192.415C237.521 192.864 237.296 193.089 236.847 193.314L224.724 197.356L229.663 210.607C229.663 211.281 221.357 224.531 221.357 224.531C220.908 224.756 220.683 224.756 220.459 224.756Z" fill="#111827"/>
<path d="M184.539 282.699C183.865 281.801 185.662 270.796 188.805 255.524C188.805 255.075 189.253 254.85 189.702 255.075C190.151 255.075 190.376 255.524 190.151 255.973C187.906 266.304 186.559 274.614 185.886 279.106L198.907 257.995C199.131 257.77 199.58 257.545 199.805 257.77C200.029 257.995 200.254 258.444 200.029 258.668L185.212 282.475C184.988 282.699 184.763 282.699 184.539 282.699Z" fill="#111827"/>
<path d="M80.1464 357.487C38.614 357.487 4.71484 323.574 4.71484 282.026C4.71484 240.477 38.614 206.564 80.1464 206.564C92.9429 206.564 103.494 209.035 113.372 214.2C113.597 214.425 113.822 214.874 113.597 215.099C113.373 215.323 112.923 215.548 112.699 215.323C103.045 210.158 92.7184 207.912 80.1464 207.912C39.2875 207.912 6.06151 241.151 6.06151 282.026C6.06151 322.901 39.2875 356.14 80.1464 356.14C90.2489 356.14 100.127 354.118 109.556 350.076C110.005 349.851 110.229 350.076 110.454 350.525C110.678 350.974 110.454 351.199 110.005 351.423C100.576 355.466 90.4734 357.487 80.1464 357.487Z" fill="#111827"/>
<path d="M128.414 340.643C127.74 340.194 127.74 339.745 127.965 339.52C134.7 333.905 140.537 327.168 144.803 319.532C145.027 319.307 145.476 319.083 145.7 319.307C145.925 319.532 146.15 319.981 145.925 320.205C141.435 327.842 135.598 334.804 128.639 340.418C128.639 340.418 128.414 340.643 128.414 340.643Z" fill="#111827"/>
<path d="M84.6363 344.236H73.8602C73.4112 344.236 73.1871 344.012 73.1871 343.563V331.21C57.9212 329.189 48.9411 320.43 45.5736 304.709C45.5736 304.26 45.798 304.035 46.0225 303.811L63.0847 299.319C63.3092 299.319 63.7579 299.319 63.9824 299.768C64.2069 300.217 64.4313 300.891 64.4313 301.34C64.6558 302.014 64.8804 302.688 65.1049 303.362C66.4519 307.629 69.3707 310.997 73.1871 312.794C77.0036 314.591 81.4936 314.591 85.5346 313.019C89.1266 311.447 91.1468 308.527 91.3713 304.26C91.5958 300.667 90.0243 297.747 86.8813 296.175C83.7383 294.827 80.5954 293.48 77.4524 292.132C75.8809 291.458 74.5339 291.009 72.9624 290.335C72.0644 289.886 71.3907 289.662 70.4927 289.437C68.9212 288.763 67.1253 288.09 65.5538 287.416C53.2064 281.577 47.5938 271.919 49.1653 258.444C50.7368 245.418 58.3697 237.333 71.6152 234.413C72.9622 233.964 72.9624 224.531 72.9624 224.531C72.9624 224.082 73.187 223.858 73.636 223.858H84.4121C84.8611 223.858 85.0852 224.082 85.0852 224.531L85.3099 233.739C86.4324 233.964 88.9021 234.638 93.3921 236.21C98.1066 238.007 101.699 240.702 104.617 244.52C104.842 244.744 104.841 245.193 104.392 245.418C104.168 245.643 103.719 245.643 103.495 245.193C100.801 241.6 97.2085 238.905 92.7185 237.333C86.657 235.087 84.4121 234.862 84.4121 234.862C83.7386 234.189 83.5138 224.981 83.5138 224.981H74.0849V234.189C72.2889 235.312 72.0642 235.312 71.6152 235.312C58.8187 238.007 51.6351 245.643 50.0636 258.219C48.4921 271.021 53.8801 280.229 65.7786 285.844C67.35 286.517 69.1459 287.191 70.7174 287.865C71.6154 288.09 72.5136 288.539 73.1871 288.763C74.7586 289.437 76.1056 289.886 77.6771 290.56C80.8201 291.908 84.1872 293.031 87.3302 294.603C90.9222 296.399 92.943 299.768 92.7185 303.811C92.494 308.527 90.0245 311.896 85.9835 313.693C81.4935 315.489 76.779 315.489 72.5135 313.468C68.248 311.447 65.1047 307.853 63.7577 303.137C63.5332 302.463 63.3092 301.789 63.0847 301.116C62.8602 300.891 62.8597 300.442 62.6352 300.217L46.9203 304.26C50.2878 319.083 59.0432 327.392 73.8602 329.189C74.0847 329.189 74.5338 329.414 74.5338 329.863V342.215H83.9627V329.863C84.4117 329.189 85.5346 328.965 85.5346 328.965C86.8816 328.74 87.7796 328.291 88.9021 328.066C101.474 325.596 109.78 317.286 111.127 305.607C112.923 291.683 107.985 282.475 95.6371 276.636C93.3921 275.513 91.1468 274.614 89.1263 273.716C88.0038 273.267 86.6571 272.818 85.5346 272.144C84.4121 271.695 83.2896 271.246 82.1671 270.796C79.2486 269.673 76.3298 268.326 73.4113 266.978C69.3703 264.957 67.7989 261.588 68.4724 256.647C69.1459 252.38 71.84 249.461 75.881 248.338C81.269 246.99 85.9833 248.338 89.1263 252.38C90.6978 254.177 91.8202 256.198 92.9427 258.219C93.3917 258.893 93.8409 259.792 94.2899 260.465L99.2287 258.444C99.6777 258.22 99.9026 258.444 100.127 258.893C100.352 259.342 100.127 259.567 99.6776 259.792L94.0651 262.038C92.7182 260.915 92.045 260.016 91.596 258.893C90.4735 256.872 89.3511 254.851 87.7796 253.054C84.1876 248.338 79.2485 248.562 75.881 249.461C72.289 250.359 70.0437 253.054 69.3702 256.647C68.6967 260.915 70.044 263.834 73.636 265.406C76.5545 266.754 79.4728 268.101 82.3913 269.224C83.5138 269.673 84.6363 270.123 85.7588 270.572C86.8813 271.021 88.004 271.47 89.351 271.919C91.596 272.818 93.841 273.716 96.086 274.839C108.882 281.127 114.046 290.785 112.25 305.158C110.678 317.286 101.699 326.269 88.9021 328.74C87.7796 328.964 86.6571 329.189 85.5346 329.414C85.0856 329.414 85.0852 341.991 85.0852 341.991C85.3097 344.012 84.8608 344.236 84.6363 344.236Z" fill="#111827"/>
<path d="M459.327 363.775H4.93911C4.49011 363.775 4.2655 363.551 4.2655 363.102C4.2655 362.653 4.49011 362.428 4.93911 362.428H459.327C459.776 362.428 460 362.653 460 363.102C460 363.551 459.551 363.775 459.327 363.775Z" fill="#111827"/>
<path d="M303.299 249.461C300.381 244.744 297.237 238.905 293.645 232.167C287.359 220.713 262.216 192.191 252.787 185.902C252.562 185.678 252.337 185.228 252.562 185.004C252.786 184.779 253.235 184.555 253.46 184.779C263.113 191.292 288.257 219.815 294.768 231.494C298.36 238.231 301.503 244.071 303.972 248.562C304.197 248.787 303.972 249.236 303.748 249.461C303.523 249.461 303.524 249.461 303.299 249.461Z" fill="#111827"/>
<path d="M443.387 364C428.57 340.643 411.283 324.248 391.527 314.815C391.303 314.591 391.078 314.366 391.302 313.917C391.527 313.468 391.752 313.468 392.201 313.692C412.182 323.125 429.692 339.745 444.06 362.877C444.284 363.102 444.061 363.551 443.836 363.775C443.612 363.775 443.611 364 443.387 364Z" fill="#111827"/>
<path d="M133.128 264.059C126.618 264.059 120.107 262.711 115.168 258.444C112.25 255.974 110.005 252.38 108.658 248.338C107.76 245.418 106.188 239.579 107.76 234.862C108.433 232.392 109.556 229.922 111.127 227.002C114.719 220.264 119.658 214.2 123.25 209.709C130.21 201.399 137.843 193.314 146.598 185.004C152.884 179.165 162.089 175.122 169.946 171.529C174.661 169.508 179.151 167.486 182.518 165.24C182.743 165.016 183.192 165.24 183.416 165.465C183.641 165.69 183.416 166.139 183.192 166.363C179.824 168.609 175.11 170.631 170.395 172.652C162.538 176.245 153.558 180.063 147.272 185.902C138.517 194.212 130.883 202.073 123.924 210.382C120.107 214.874 115.393 220.938 111.801 227.451C110.229 230.371 109.107 232.841 108.433 235.087C107.086 239.579 108.433 244.969 109.331 247.888C110.678 251.706 112.699 255.075 115.393 257.321C123.25 264.059 134.924 262.936 145.251 261.364C156.476 259.792 166.579 256.872 178.253 251.931C178.702 251.707 178.926 251.931 179.151 252.38C179.375 252.829 179.151 253.054 178.702 253.279C167.028 257.995 156.476 261.139 145.251 262.711C141.659 263.61 137.394 264.059 133.128 264.059Z" fill="#111827"/>
<path d="M257.502 363.775H142.782C142.109 362.652 147.048 313.243 148.844 290.335C150.415 271.021 151.313 261.364 151.313 261.139C151.313 260.69 151.762 260.465 151.987 260.465C152.436 260.465 152.66 260.914 152.66 261.139C152.66 261.139 151.762 271.021 150.19 290.335C148.619 311.896 144.129 356.139 143.455 362.428H256.604C255.032 354.792 242.909 294.378 242.235 277.534C242.011 273.941 242.684 270.572 244.48 266.08C244.705 265.631 244.93 265.631 245.379 265.631C245.828 265.855 245.828 266.08 245.828 266.529C244.256 270.796 243.583 273.941 243.807 277.534C244.481 295.276 258.175 362.203 258.4 362.877C257.951 363.775 257.726 363.775 257.502 363.775Z" fill="#111827"/>
<path d="M442.938 364C433.509 352.321 413.304 332.333 379.405 326.943C378.956 326.943 378.731 326.494 378.955 326.269C378.955 325.82 379.405 325.595 379.629 325.82C414.203 331.21 434.408 351.647 443.612 363.101C443.837 363.326 443.836 363.775 443.387 364C443.163 363.775 443.162 364 442.938 364Z" fill="#111827"/>
<path d="M125.72 226.104C128.863 219.142 137.17 215.099 148.844 213.302C149.293 213.302 149.517 213.527 149.517 213.751C149.517 214.201 149.292 214.425 149.068 214.425C138.516 216.222 130.884 219.591 127.067 224.532L145.251 224.307C145.7 224.307 145.925 224.532 145.925 224.981C145.925 225.43 145.7 225.655 145.251 225.655L125.72 226.104Z" fill="#111827"/>
<path d="M250.542 267.428C247.848 267.428 244.929 267.203 241.786 266.754C190.151 260.465 140.986 240.926 140.537 240.702C140.313 240.477 140.088 240.252 140.088 239.803L149.741 208.81C149.741 208.586 150.19 208.361 150.415 208.361L239.99 227.451C240.439 227.451 240.664 227.9 240.439 228.349C240.439 228.799 239.99 229.023 239.541 228.798L150.415 209.933L140.986 239.579C146.598 241.825 193.07 259.342 241.337 265.406C258.848 267.652 271.195 263.385 277.032 253.503C285.114 239.579 278.829 218.018 268.502 203.869C249.195 177.817 227.867 168.384 227.642 168.384C227.193 168.16 227.194 167.935 227.194 167.486C227.418 167.037 227.643 167.037 228.092 167.037C228.316 167.037 249.868 176.694 269.4 202.971C280.176 217.345 286.461 239.579 278.155 253.952C275.012 260.465 267.155 267.428 250.542 267.428Z" fill="#111827"/>
<path d="M184.539 282.699C183.865 282.25 176.457 253.728 176.457 253.728C176.457 253.279 176.681 253.054 176.906 252.829C177.355 252.829 177.579 253.054 177.804 253.278L183.416 274.839C183.192 269.673 182.743 262.262 182.294 253.728C182.294 253.279 182.518 253.054 182.967 253.054C183.416 253.054 183.641 253.279 183.641 253.728C184.09 269.449 185.212 281.576 185.212 281.801C185.212 282.475 184.988 282.699 184.539 282.699Z" fill="#111827"/>
<path d="M182.967 216.895C182.518 216.895 182.294 216.671 182.294 216.222C182.743 206.34 183.416 199.827 184.314 192.864L184.539 191.741C186.335 173.55 188.58 162.994 188.58 162.77V161.871L177.804 172.202L166.355 189.72L172.865 195.784C173.089 196.682 166.13 209.259 166.13 209.259L167.028 212.404C167.028 212.853 166.803 213.077 166.579 213.302C166.13 213.302 165.905 213.077 165.681 212.853L164.783 209.259C164.783 208.81 171.518 196.233 171.518 196.233L165.007 189.945C165.007 189.046 176.681 171.079 176.681 171.079L188.58 159.625C189.702 160.075 189.702 162.77 189.702 162.77C189.702 162.994 187.457 173.55 185.661 191.741L185.437 192.864C184.763 199.827 184.09 206.34 183.416 216.222C183.641 216.671 183.416 216.895 182.967 216.895Z" fill="#111827"/>
<path d="M121.005 227.675C120.332 227.002 120.332 226.552 120.781 226.328C120.781 226.328 123.475 225.205 125.72 224.756C126.169 224.756 126.394 224.98 126.394 225.205C126.394 225.654 126.169 225.879 125.945 225.879C123.924 226.328 121.455 227.451 121.455 227.451C121.23 227.675 121.23 227.675 121.005 227.675Z" fill="#111827"/>
<path d="M183.641 118.526C182.967 118.077 170.395 103.479 181.396 92.6985C188.131 86.1854 198.233 92.0248 200.254 93.3723C201.825 92.2493 208.111 88.656 217.54 92.4739C224.5 95.169 226.969 104.377 227.194 104.602C227.194 105.051 226.969 105.275 226.745 105.5C226.296 105.5 226.072 105.275 225.847 105.051C225.847 105.051 223.377 96.2919 217.091 93.8214C206.764 89.7788 200.927 94.7198 200.703 94.9444C199.805 94.9444 189.029 87.3084 182.294 93.8214C171.967 103.928 183.865 117.628 184.09 117.628C184.314 117.852 184.314 118.301 184.09 118.526C184.09 118.301 183.865 118.526 183.641 118.526Z" fill="#111827"/>
<path d="M209.009 113.81C200.478 113.81 186.559 112.911 183.641 107.297C183.416 107.072 183.64 106.623 183.865 106.398C184.089 106.174 184.539 106.398 184.763 106.623C187.906 112.687 208.111 112.687 215.52 112.238C215.969 112.238 216.193 112.462 216.193 112.911C216.193 113.36 215.969 113.585 215.52 113.585C215.52 113.585 212.826 113.81 209.009 113.81Z" fill="#111827"/>
</svg>
