<svg width="86" height="46" viewBox="0 0 86 46" fill="none" xmlns="http://www.w3.org/2000/svg">
<path d="M29.3432 26.0302L39.1325 0.915024C39.3421 0.386078 39.8871 0.0334473 40.495 0.0334473H44.6874C45.2953 0.0334473 45.8403 0.386078 46.0499 0.915024L51.6258 15.2358H53.785C54.2251 15.2358 54.6234 15.4904 54.7701 15.8822L55.6296 18.096C55.7134 18.3115 55.5458 18.527 55.2942 18.527H52.9046L53.4286 19.8396H55.5877C56.0279 19.8396 56.4262 20.0943 56.5729 20.486L57.4324 22.6998C57.5162 22.9153 57.3485 23.1307 57.097 23.1307H54.7073L55.8183 25.991C55.9021 26.2065 55.7345 26.422 55.4829 26.422H51.1228C50.6826 26.422 50.2843 26.1673 50.1375 25.7755L49.1105 23.1112H35.9253C35.6738 23.1112 35.5061 22.8761 35.5899 22.6802L36.4494 20.4664C36.5961 20.0747 36.9944 19.82 37.4345 19.82H47.8108L47.2867 18.5074H37.7071C37.4556 18.5074 37.2878 18.2723 37.3717 18.0764L38.2311 15.8626C38.3778 15.4709 38.7761 15.2162 39.2163 15.2162H45.9871L41.8575 4.59806C41.7527 4.3042 41.3125 4.3042 41.1868 4.59806L32.9487 25.8147C32.8019 26.2065 32.4037 26.4612 31.9635 26.4612H29.6786C29.4271 26.4612 29.2594 26.2261 29.3432 26.0302Z" fill="url(#paint0_linear_2_2061)"/>
<path d="M6.95513 37.9219V37.8044C6.97609 37.8044 7.03898 37.8044 7.14379 37.7848C7.2486 37.7652 7.35341 37.7456 7.45822 37.7064C7.56304 37.6673 7.66785 37.6085 7.75171 37.5301C7.8355 37.4518 7.87747 37.3538 7.87747 37.2559C7.87747 37.1775 7.85652 37.06 7.81455 36.9033C7.77266 36.7465 7.68879 36.531 7.60493 36.2959C7.52107 36.0609 7.41626 35.7866 7.31145 35.4927C7.20664 35.1988 7.08088 34.8854 6.95513 34.572H3.47543C3.34966 34.8854 3.22388 35.1793 3.09811 35.4535C2.97234 35.7278 2.84657 36.0217 2.74176 36.2959C2.5531 36.7269 2.46925 37.0404 2.46925 37.2167C2.46925 37.3147 2.51118 37.4126 2.57407 37.4714C2.63695 37.5497 2.74176 37.5889 2.84657 37.6477C2.95138 37.6868 3.07715 37.726 3.20292 37.7456C3.32869 37.7652 3.45447 37.7848 3.55928 37.8044V37.9219H0.750366V37.7848C0.980949 37.7652 1.16961 37.7064 1.3373 37.6085C1.505 37.5105 1.58885 37.4518 1.60981 37.4322C1.6727 37.3734 1.77751 37.2363 1.90328 37.0208C2.05001 36.8053 2.21771 36.4918 2.40637 36.0805C2.59503 35.6886 2.78369 35.2576 3.01427 34.7679C3.24484 34.2781 3.47543 33.7688 3.70601 33.2594C3.93659 32.75 4.18814 32.2211 4.41872 31.6921C4.6493 31.1632 4.87989 30.6734 5.08951 30.2229L4.96373 29.9486C5.11047 29.8898 5.2572 29.8115 5.38297 29.7135C5.50875 29.6155 5.61356 29.5372 5.71837 29.4392C5.82318 29.3412 5.88606 29.2433 5.96991 29.165C6.0328 29.067 6.09568 29.0082 6.11665 28.9495H6.22146C6.49396 29.6155 6.7455 30.262 6.99705 30.8693C7.2486 31.4767 7.47917 32.0644 7.68879 32.6129C7.91936 33.181 8.12899 33.71 8.33861 34.2389C8.54823 34.7679 8.75785 35.2772 8.96747 35.7866C9.07228 36.0413 9.15614 36.2568 9.24 36.4135C9.32386 36.5898 9.40766 36.7661 9.51247 36.9816C9.53348 37.0208 9.57538 37.0796 9.63829 37.1579C9.70114 37.2363 9.785 37.3147 9.88981 37.4126C9.99462 37.491 10.1204 37.5693 10.2672 37.6477C10.4139 37.7064 10.5816 37.7456 10.7912 37.7652V37.9024H6.95513V37.9219ZM5.2572 30.5363C5.19432 30.6342 5.13143 30.8106 5.02662 31.0457C4.92181 31.2808 4.79604 31.555 4.6493 31.8684C4.50257 32.2015 4.33487 32.5541 4.16718 32.9655C3.97852 33.3769 3.78986 33.8275 3.58024 34.2977H6.82936C6.68262 33.9255 6.53589 33.5729 6.36819 33.2006C6.22146 32.8284 6.07472 32.4758 5.92799 32.1427C5.78125 31.8097 5.65548 31.4962 5.52971 31.222C5.4249 30.9477 5.34105 30.7126 5.2572 30.5363Z" fill="#111827"/>
<path d="M23.1177 37.9221V37.785C23.495 37.7654 23.8094 37.687 24.061 37.5695C24.3125 37.4323 24.4802 37.2952 24.5641 37.1189C24.606 37.0209 24.6479 36.8838 24.6898 36.7271C24.7108 36.5704 24.7317 36.4136 24.7527 36.2373C24.7737 35.7084 24.7737 35.1794 24.7737 34.7092C24.7737 34.2195 24.7737 33.7101 24.7737 33.2008V29.7332C24.4802 30.3405 24.2286 30.8891 23.9771 31.3984C23.7465 31.9078 23.495 32.3975 23.2644 32.8677C23.0338 33.3575 22.7823 33.8472 22.5517 34.3371C22.3211 34.8463 22.0486 35.3949 21.7551 35.9826C21.7132 36.061 21.6503 36.1981 21.5665 36.3744C21.4826 36.5508 21.4198 36.7271 21.3359 36.9034C21.252 37.0797 21.1892 37.256 21.1053 37.4127C21.0424 37.5695 21.0005 37.6674 20.9796 37.7066H20.8957C20.6232 37.0993 20.3507 36.5116 20.0572 35.9043C19.7847 35.3166 19.5122 34.7288 19.2606 34.1803C19.0091 33.6317 18.7575 33.1224 18.527 32.6326C18.2964 32.1429 18.0868 31.7315 17.919 31.3592C17.7304 30.987 17.5837 30.6736 17.4579 30.4189C17.3321 30.1642 17.2692 29.9879 17.2064 29.9095C17.2064 30.4385 17.2064 30.9283 17.2064 31.3396C17.2064 31.7511 17.2064 32.1625 17.1854 32.5543C17.1854 32.9657 17.1854 33.3771 17.1854 33.8277C17.1854 34.2783 17.1854 34.7876 17.1854 35.3949C17.1854 35.7867 17.2064 36.1002 17.2273 36.394C17.2483 36.6683 17.3112 36.9034 17.416 37.0993C17.5208 37.2952 17.6885 37.4323 17.8981 37.5499C18.1077 37.6674 18.4012 37.7458 18.7785 37.785V37.9025H15.3617V37.785C15.6761 37.7262 15.9067 37.6478 16.1163 37.5303C16.305 37.4127 16.4517 37.2756 16.5775 37.0797C16.6823 36.8838 16.7661 36.6487 16.829 36.3549C16.892 36.061 16.9129 35.7084 16.9129 35.297C16.9339 34.9443 16.9339 34.5329 16.9548 34.0628C16.9548 33.5926 16.9758 33.0833 16.9758 32.5347C16.9758 32.2996 16.9758 32.1037 16.9758 31.9274C16.9758 31.7707 16.9758 31.6139 16.9758 31.4572C16.9758 31.3005 16.9758 31.1437 16.9758 30.987C16.9758 30.8303 16.9758 30.6344 16.9548 30.3797C16.9548 30.1446 16.892 29.9683 16.8081 29.8312C16.7033 29.6941 16.5985 29.5765 16.4727 29.4982C16.3469 29.4198 16.2002 29.361 16.0535 29.3218C15.9067 29.2827 15.7809 29.2631 15.6761 29.2435V29.1455H18.4641L21.5874 35.7867C21.9648 35.0227 22.3421 34.2391 22.7194 33.475C23.0758 32.711 23.4112 32.0253 23.7046 31.3984C23.9981 30.7716 24.2286 30.2622 24.4173 29.8508C24.606 29.4394 24.7108 29.2043 24.7317 29.1455H27.5197V29.2631C27.1633 29.2631 26.8909 29.3414 26.7022 29.4786C26.5135 29.6157 26.3878 29.7724 26.3248 29.9487C26.262 30.0858 26.241 30.3014 26.22 30.5952C26.1991 30.8891 26.1991 31.1829 26.1781 31.4572C26.1781 31.849 26.1572 32.2212 26.1572 32.5934C26.1572 32.9657 26.1572 33.3379 26.1572 33.7101C26.1572 34.1411 26.1572 34.5917 26.1572 35.0227C26.1572 35.4537 26.1572 35.9043 26.1781 36.394C26.1781 36.5508 26.1991 36.7075 26.22 36.8642C26.241 37.0209 26.2829 37.1385 26.3248 37.2364C26.3248 37.256 26.3668 37.2952 26.4296 37.354C26.4926 37.4127 26.5764 37.4715 26.6812 37.5499C26.786 37.6282 26.9118 37.687 27.0795 37.7262C27.2262 37.785 27.4149 37.8046 27.6245 37.8242V37.9417H23.1177V37.9221Z" fill="#111827"/>
<path d="M34.2064 37.9219V37.8044C34.2273 37.8044 34.2903 37.8044 34.3951 37.7848C34.4999 37.7652 34.6047 37.7456 34.7095 37.7064C34.8143 37.6673 34.9191 37.6085 35.003 37.5301C35.0868 37.4518 35.1287 37.3538 35.1287 37.2559C35.1287 37.1775 35.1078 37.06 35.0658 36.9033C35.0239 36.7465 34.9401 36.531 34.8562 36.2959C34.7723 36.0609 34.6675 35.7866 34.5627 35.4927C34.4579 35.1988 34.3322 34.8854 34.2064 34.572H30.7267C30.6009 34.8854 30.4751 35.1793 30.3494 35.4535C30.2236 35.7278 30.0978 36.0217 29.993 36.2959C29.8044 36.7269 29.7205 37.0404 29.7205 37.2167C29.7205 37.3147 29.7625 37.4126 29.8253 37.4714C29.8882 37.5497 29.993 37.5889 30.0978 37.6477C30.2027 37.6868 30.3284 37.726 30.4542 37.7456C30.5799 37.7652 30.7058 37.7848 30.8106 37.8044V37.9219H28.0226V37.7848C28.2532 37.7652 28.4418 37.7064 28.6095 37.6085C28.7772 37.5105 28.8611 37.4518 28.882 37.4322C28.9449 37.3734 29.0497 37.2363 29.1755 37.0208C29.3222 36.8053 29.4899 36.4918 29.6786 36.0805C29.8673 35.6886 30.0559 35.2576 30.2865 34.7679C30.5171 34.2781 30.7477 33.7688 30.9782 33.2594C31.2088 32.75 31.4604 32.2211 31.6909 31.6921C31.9215 31.1632 32.1521 30.6734 32.3617 30.2229L32.2359 29.9486C32.3827 29.8898 32.5294 29.8115 32.6552 29.7135C32.7809 29.6155 32.8858 29.5372 32.9906 29.4392C33.0954 29.3412 33.1583 29.2433 33.2422 29.165C33.305 29.067 33.347 29.0082 33.3889 28.9495H33.4937C33.7662 29.6155 34.0177 30.262 34.2693 30.8693C34.5208 31.4767 34.7514 32.0644 34.961 32.6129C35.1916 33.181 35.4012 33.71 35.6108 34.2389C35.8205 34.7679 36.0301 35.2772 36.2397 35.7866C36.3445 36.0413 36.4284 36.2568 36.5122 36.4135C36.5961 36.5898 36.6799 36.7661 36.7847 36.9816C36.8057 37.0208 36.8476 37.0796 36.9105 37.1579C36.9734 37.2363 37.0572 37.3147 37.162 37.4126C37.2668 37.491 37.3926 37.5693 37.5394 37.6477C37.6861 37.7064 37.8538 37.7456 38.0634 37.7652V37.9024H34.2064V37.9219ZM32.4875 30.5363C32.4246 30.6342 32.3617 30.8106 32.2569 31.0457C32.1521 31.2808 32.0263 31.555 31.8796 31.8684C31.7328 32.2015 31.5652 32.5541 31.3975 32.9655C31.2088 33.3769 31.0202 33.8275 30.8106 34.2977H34.0597C33.9129 33.9255 33.7662 33.5729 33.5985 33.2006C33.4518 32.8284 33.305 32.4758 33.1583 32.1427C33.0116 31.8097 32.8858 31.4962 32.76 31.222C32.6552 30.9477 32.5713 30.7126 32.4875 30.5363Z" fill="#111827"/>
<path d="M45.7154 37.9221C45.6315 37.8438 45.5896 37.785 45.5477 37.7654C45.5057 37.7262 45.4638 37.687 45.4219 37.6282C45.38 37.5695 45.3171 37.5107 45.2542 37.4127C45.1913 37.3148 45.0865 37.1776 44.9398 36.9817C44.7721 36.7467 44.6253 36.5508 44.4996 36.3744C44.3738 36.1981 44.248 36.0022 44.1222 35.8259C43.9965 35.6496 43.8497 35.4733 43.703 35.2774C43.5563 35.1011 43.3676 34.8855 43.158 34.6701C42.9903 34.4742 42.8016 34.3175 42.592 34.1411C42.3824 33.9844 42.1727 33.8864 41.9422 33.8277C41.7745 33.7885 41.6487 33.7885 41.5649 33.7885C41.481 33.7885 41.3762 33.7885 41.2714 33.7689C41.2714 34.2979 41.2714 34.7484 41.2714 35.1402C41.2714 35.5321 41.2714 35.8651 41.2924 36.1197C41.2924 36.3744 41.3133 36.6096 41.3133 36.7859C41.3133 36.9818 41.3762 37.1189 41.4601 37.256C41.5229 37.354 41.6697 37.4715 41.8583 37.5891C42.0679 37.7066 42.3405 37.7654 42.6968 37.785V37.9025H38.5254V37.785C38.735 37.7458 38.9446 37.7066 39.1543 37.6478C39.3639 37.5891 39.5106 37.4911 39.6154 37.354C39.6573 37.3148 39.6993 37.2364 39.7202 37.1385C39.7412 37.0405 39.7621 36.923 39.7831 36.8055C39.8041 36.6879 39.8041 36.5508 39.825 36.4136C39.825 36.2765 39.846 36.1393 39.846 36.0022C39.846 35.8847 39.846 35.728 39.846 35.5321C39.846 35.3362 39.846 35.1206 39.8669 34.8855C39.8669 34.6505 39.8669 34.4154 39.8669 34.1803C39.8669 33.9256 39.8669 33.6905 39.8669 33.475V31.1046C39.8669 30.9674 39.8669 30.8107 39.8669 30.654C39.8669 30.4973 39.846 30.3601 39.846 30.223C39.825 30.0858 39.8041 29.9683 39.7831 29.8508C39.7621 29.7332 39.7202 29.6549 39.6573 29.6157C39.5315 29.4786 39.3848 29.4002 39.2171 29.361C39.0494 29.3218 38.8608 29.2827 38.6302 29.2435V29.1455C38.693 29.1455 38.8817 29.1455 39.1752 29.1455C39.4687 29.1455 39.8041 29.1455 40.1813 29.1455C40.5587 29.1455 40.936 29.1455 41.3133 29.1455C41.6907 29.1455 41.9841 29.1455 42.2357 29.1455C42.8226 29.1455 43.3467 29.1651 43.7869 29.1847C44.248 29.2239 44.6463 29.3218 45.0236 29.5178C45.4009 29.7136 45.7154 29.9683 45.9459 30.2818C46.1766 30.5952 46.3023 31.0066 46.3023 31.4964C46.3023 31.7903 46.2394 32.0645 46.1346 32.2996C46.0088 32.5347 45.8621 32.7502 45.6735 32.9265C45.4848 33.1028 45.2542 33.2596 44.9817 33.3967C44.7302 33.5338 44.4367 33.6317 44.1641 33.7297V33.7689C44.3109 33.8472 44.4576 33.9452 44.6044 34.0824C44.7511 34.2195 44.8769 34.3762 45.0026 34.5525C45.2333 34.8659 45.4848 35.199 45.7363 35.5517C46.0088 35.9043 46.2394 36.2373 46.449 36.5116C46.7635 36.9426 47.0779 37.2364 47.3923 37.4323C47.7068 37.6282 48.0631 37.7458 48.4614 37.8046V37.9221H45.7154ZM44.4157 30.3209C44.2061 30.0075 43.8707 29.7528 43.4724 29.5569C43.2628 29.459 43.0532 29.4002 42.8226 29.361C42.592 29.3218 42.3405 29.3023 42.0889 29.3023C41.9003 29.3023 41.7535 29.3022 41.6487 29.3218C41.5439 29.3218 41.4391 29.3414 41.3972 29.3414C41.3972 29.3806 41.3762 29.4394 41.3762 29.4786C41.3762 29.5178 41.3553 29.5569 41.3553 29.6157C41.3553 29.6745 41.3553 29.7528 41.3343 29.8508C41.3343 29.9487 41.3133 30.1054 41.3133 30.2818C41.3133 30.5756 41.2924 30.8891 41.2924 31.2417C41.2924 31.5943 41.2924 31.947 41.2924 32.28C41.2924 32.613 41.2924 32.9069 41.2924 33.1616C41.2924 33.3967 41.2924 33.5534 41.2924 33.6317C41.6487 33.6317 41.9841 33.6121 42.2986 33.5926C42.613 33.573 42.9064 33.5142 43.1999 33.4163C43.4724 33.3379 43.724 33.2204 43.9126 33.0833C44.1222 32.9461 44.269 32.7894 44.3948 32.613C44.5205 32.4367 44.6044 32.2408 44.6672 32.0449C44.7302 31.849 44.7511 31.6335 44.7511 31.418C44.7511 31.0066 44.6463 30.6344 44.4157 30.3209Z" fill="#111827"/>
<path d="M55.9014 37.9221C55.8595 37.9025 55.8175 37.8829 55.7756 37.8634C55.7336 37.8438 55.6917 37.785 55.6288 37.7262C55.0629 37.1189 54.5388 36.5508 54.0357 36.0022C53.5327 35.4537 53.0086 34.9051 52.4846 34.3566C52.2539 34.1215 52.1072 33.9648 52.0234 33.9256C51.9395 33.8668 51.8767 33.8472 51.8137 33.8472C51.7509 33.8472 51.688 33.8668 51.667 33.8864C51.646 33.906 51.6251 33.9648 51.6041 34.0236C51.6041 34.4546 51.6041 34.8464 51.6041 35.2382C51.6041 35.6104 51.6041 35.9434 51.6251 36.1981C51.6251 36.4332 51.6461 36.6487 51.688 36.8642C51.7089 37.0601 51.7719 37.2168 51.8557 37.3344C51.9186 37.4127 52.0024 37.4911 52.1072 37.5499C52.212 37.6087 52.3169 37.6478 52.4426 37.687C52.5684 37.7262 52.6942 37.7458 52.799 37.7654C52.9248 37.785 53.0086 37.8046 53.1134 37.8046V37.9221H48.921V37.8046C49.1306 37.7654 49.3403 37.7262 49.5499 37.6674C49.7595 37.6087 49.9062 37.5107 50.011 37.3931C50.0529 37.3344 50.0949 37.2756 50.1158 37.1776C50.1368 37.0797 50.1577 36.9622 50.1787 36.8446C50.1997 36.7271 50.1997 36.59 50.1997 36.4332C50.1997 36.2961 50.1997 36.1589 50.1997 36.0218C50.1997 35.9043 50.1997 35.7475 50.1997 35.5517C50.1997 35.3557 50.1997 35.1402 50.1997 34.9247C50.1997 34.6896 50.1997 34.4546 50.1997 34.1999C50.1997 33.9452 50.1997 33.7101 50.1997 33.4946V31.1241C50.1997 30.8107 50.1787 30.5365 50.1577 30.2622C50.1368 30.0075 50.0739 29.8116 49.9901 29.6941C49.8643 29.5569 49.7175 29.459 49.5499 29.3806C49.3822 29.3218 49.1725 29.2631 48.942 29.2435V29.1455H52.9876V29.2631C52.82 29.2827 52.6522 29.3022 52.5055 29.3218C52.3588 29.3414 52.212 29.4198 52.0863 29.4982C51.9605 29.5961 51.8556 29.7332 51.7719 29.9291C51.688 30.125 51.6461 30.3797 51.6251 30.7128C51.6251 30.9087 51.6041 31.085 51.6041 31.2417C51.6041 31.3984 51.6041 31.5943 51.6041 31.8099C51.6041 32.0253 51.6041 32.28 51.6041 32.5739C51.6041 32.8677 51.6041 33.24 51.6041 33.6905C51.7509 33.5926 51.9815 33.4554 52.233 33.24C52.5055 33.0245 52.778 32.7894 53.0715 32.5151C53.365 32.2408 53.6584 31.9666 53.9309 31.6923C54.2244 31.3984 54.4759 31.1633 54.6855 30.9479C54.8323 30.7911 54.9581 30.6148 55.0838 30.4385C55.2096 30.2622 55.2515 30.1054 55.2515 29.9683C55.2515 29.7332 55.1677 29.5569 55 29.459C54.8323 29.361 54.6227 29.2827 54.3921 29.2435V29.1455H57.8928V29.2631C57.4526 29.3023 56.9914 29.4786 56.5512 29.792C56.09 30.1054 55.6288 30.4581 55.1677 30.8695C54.979 31.0262 54.7903 31.1829 54.6017 31.3788C54.4131 31.5552 54.2244 31.7315 54.0357 31.9078C53.847 32.0841 53.6584 32.2604 53.4907 32.4171C53.323 32.5934 53.1553 32.7502 53.0086 32.8873C53.0715 32.9657 53.2392 33.142 53.4907 33.4163C53.7422 33.6905 54.0357 34.004 54.3921 34.3762C54.7484 34.7484 55.1048 35.1402 55.5031 35.5517C55.9014 35.963 56.2787 36.3744 56.656 36.7467C56.7398 36.8446 56.8447 36.9426 56.9495 37.0405C57.0543 37.1385 57.18 37.2168 57.2848 37.2952C57.3896 37.3736 57.4735 37.4323 57.5574 37.4911C57.6412 37.5499 57.6831 37.5891 57.7041 37.5891C57.8089 37.6282 57.9766 37.6674 58.1653 37.7066C58.3539 37.7458 58.5845 37.785 58.8151 37.785V37.9025H55.9014V37.9221Z" fill="#111827"/>
<path d="M67.2624 37.9221H59.276V37.8046C59.4856 37.7654 59.6952 37.7262 59.8839 37.6478C60.0726 37.5695 60.2193 37.4715 60.3451 37.3344C60.387 37.2952 60.4289 37.2168 60.4499 37.1189C60.4708 37.0209 60.4918 36.923 60.5128 36.7859C60.5337 36.6683 60.5547 36.5312 60.5547 36.394C60.5547 36.2569 60.5756 36.1197 60.5756 36.0022C60.5756 35.8847 60.5756 35.728 60.5756 35.5321C60.5756 35.3362 60.5756 35.1206 60.5966 34.8855C60.5966 34.6505 60.5966 34.4154 60.5966 34.1803C60.5966 33.9256 60.5966 33.6905 60.5966 33.475V31.1046C60.5966 30.9674 60.5966 30.8107 60.5966 30.654C60.5966 30.4973 60.5756 30.3601 60.5756 30.223C60.5547 30.0858 60.5337 29.9683 60.5128 29.8508C60.4918 29.7332 60.4499 29.6549 60.387 29.6157C60.2612 29.4786 60.1145 29.4002 59.9678 29.361C59.821 29.3218 59.6323 29.2827 59.4018 29.2631V29.1455H66.6125L67.4933 31.1633L67.3675 31.2221C66.6547 30.3993 66.0048 29.8508 65.3757 29.5569C65.2291 29.4982 64.9567 29.4394 64.5585 29.3806C64.1603 29.3414 63.6777 29.3023 63.0911 29.3023C62.9024 29.3023 62.7138 29.3022 62.5251 29.3218C62.3365 29.3414 62.1897 29.3414 62.1059 29.361C62.0849 29.4982 62.0639 29.7528 62.0639 30.1642C62.043 30.5756 62.043 31.0458 62.043 31.5747C62.043 31.8882 62.043 32.1429 62.043 32.3583C62.043 32.5739 62.043 32.7502 62.043 32.8677C62.043 33.0049 62.043 33.1028 62.043 33.1812C62.043 33.24 62.043 33.2987 62.043 33.3183C62.0849 33.3183 62.1687 33.3183 62.2946 33.3183C62.4203 33.3183 62.567 33.3183 62.7557 33.2987C62.9234 33.2987 63.0911 33.2791 63.2588 33.2595C63.4265 33.24 63.5732 33.2204 63.6777 33.2008C63.9294 33.142 64.1603 33.0637 64.3276 32.9657C64.4956 32.8677 64.6422 32.7502 64.7472 32.613C64.8516 32.4759 64.9359 32.3192 64.9989 32.1233C65.0618 31.947 65.1247 31.7315 65.1662 31.516H65.3128V35.3557H65.1662C65.1033 35.101 64.9989 34.8268 64.8516 34.5525C64.7051 34.2783 64.5585 34.0628 64.4119 33.9256C64.2647 33.8081 64.0973 33.7101 63.9086 33.6513C63.7199 33.573 63.4894 33.5338 63.2168 33.5142C63.0911 33.5142 62.9863 33.4946 62.8815 33.4946C62.7976 33.4946 62.7138 33.4946 62.6299 33.4946C62.5461 33.4946 62.4622 33.4946 62.3784 33.4946C62.2946 33.4946 62.1687 33.4946 62.043 33.4946C62.022 33.6121 62.022 33.7689 62.022 34.004C62.022 34.2195 62.022 34.4546 62.022 34.6896C62.022 34.7876 62.022 34.9247 62.022 35.0619C62.022 35.199 62.022 35.3362 62.022 35.4733C62.022 35.6104 62.022 35.728 62.022 35.8455C62.022 35.963 62.022 36.061 62.022 36.1393C62.022 36.394 62.043 36.6487 62.0639 36.8838C62.0849 37.1189 62.1268 37.2952 62.2107 37.3931C62.2946 37.5107 62.4832 37.5891 62.7766 37.6282C63.0701 37.687 63.3846 37.7066 63.7406 37.7066C63.8878 37.7066 64.0766 37.7066 64.3068 37.687C64.5377 37.687 64.7887 37.6674 65.0404 37.6282C65.3128 37.5891 65.5858 37.5303 65.8161 37.4323C66.047 37.3344 66.2772 37.1972 66.4867 37.0405C66.6968 36.8642 66.9063 36.6683 67.1158 36.4136C67.3253 36.1589 67.5348 35.8651 67.7449 35.5125L67.8915 35.5517L67.2624 37.9221Z" fill="#111827"/>
<path d="M78.0983 31.4376C78.0353 31.3004 77.9517 31.1437 77.8466 30.987C77.7422 30.8302 77.6579 30.6735 77.5534 30.5364C77.4484 30.3993 77.3647 30.2622 77.2596 30.1446C77.1552 30.027 77.0709 29.9487 77.0086 29.8899C76.8199 29.7332 76.6312 29.6156 76.4217 29.5569C76.2115 29.4981 75.9391 29.4785 75.6038 29.4589C75.4365 29.4589 75.2893 29.4589 75.1634 29.4589C75.0376 29.4589 74.9124 29.4589 74.8074 29.4589C74.7023 29.4589 74.5765 29.4589 74.4299 29.4589C74.3041 29.4589 74.1367 29.4589 73.948 29.4589C73.948 29.6548 73.948 29.9487 73.948 30.2817C73.948 30.6344 73.948 31.0066 73.948 31.3788C73.948 31.7706 73.948 32.1428 73.948 32.5151C73.948 32.8873 73.948 33.1811 73.948 33.4358V36.1393C73.948 36.3744 73.948 36.6095 73.9688 36.825C73.9895 37.0405 74.0317 37.1972 74.0946 37.2756C74.2204 37.4519 74.4091 37.5695 74.6394 37.6478C74.8703 37.7066 75.1005 37.7654 75.2893 37.7849V37.9025H71.0553V37.7849C71.2856 37.7654 71.4951 37.7262 71.7052 37.6674C71.9147 37.6086 72.1242 37.4715 72.3129 37.256C72.3544 37.2168 72.3966 37.1384 72.4174 37.0601C72.4387 36.9621 72.4595 36.8642 72.4803 36.7466C72.5017 36.6291 72.5017 36.492 72.5017 36.3548C72.5017 36.2177 72.5017 36.0805 72.5017 35.9434C72.5017 35.8258 72.5017 35.6887 72.5017 35.4928C72.5017 35.2969 72.5017 35.101 72.5224 34.8659C72.5224 34.6308 72.5224 34.3957 72.5224 34.1607C72.5224 33.9256 72.5224 33.6905 72.5224 33.4554V29.4197C72.3337 29.4197 72.1871 29.4197 72.0405 29.4197C71.9147 29.4197 71.7889 29.4197 71.663 29.4197C71.558 29.4197 71.4322 29.4197 71.3063 29.4197C71.1811 29.4197 71.0339 29.4197 70.8666 29.4197C70.5313 29.4197 70.2582 29.4589 70.0487 29.5373C69.8392 29.596 69.6297 29.7136 69.4618 29.8703C69.3989 29.9291 69.3152 30.0075 69.2101 30.125C69.1264 30.2426 69.022 30.3601 68.917 30.4972C68.8119 30.6344 68.7282 30.7715 68.6238 30.9282C68.5395 31.0849 68.4558 31.2417 68.4137 31.3788L68.2878 31.3396L68.6867 29.0279C68.8962 29.0671 69.0635 29.1063 69.2315 29.1259C69.3989 29.1455 69.6505 29.1651 69.9651 29.1847C70.3004 29.1847 70.5942 29.2043 70.8452 29.2043C71.0968 29.2043 71.3485 29.2043 71.6001 29.2043C71.8518 29.2043 72.082 29.2043 72.3337 29.2043C72.5853 29.2043 72.8785 29.2043 73.2144 29.2043C73.5284 29.2043 73.8222 29.2043 74.0738 29.2043C74.3255 29.2043 74.5979 29.2043 74.8281 29.2043C75.0798 29.2043 75.3314 29.2043 75.5831 29.1847C75.8347 29.1847 76.1486 29.1847 76.4632 29.1847C76.757 29.1847 76.9872 29.1455 77.176 29.1259C77.3647 29.0867 77.5534 29.0475 77.7629 28.9888L78.1819 31.3592L78.0983 31.4376Z" fill="#111827"/>
<path d="M85.4779 36.5703C85.3106 36.8837 85.0797 37.1384 84.7651 37.3539C84.472 37.5695 84.1152 37.7458 83.6963 37.8437C83.2773 37.9416 82.8155 38.0004 82.3336 38.0004C81.9146 38.0004 81.5371 37.9808 81.2433 37.9221C80.9294 37.8829 80.6778 37.8241 80.489 37.7458C80.2795 37.6674 80.1329 37.6086 80.0279 37.5499C79.9228 37.4911 79.8599 37.4715 79.8392 37.4715C79.8184 37.4715 79.7555 37.5107 79.6712 37.6086C79.5875 37.7066 79.5038 37.8045 79.4409 37.8829H79.3151L79.2729 35.4536H79.3988C79.4831 35.6691 79.5875 35.8846 79.6926 36.1001C79.8184 36.3156 79.9442 36.5116 80.0908 36.6879C80.2374 36.8642 80.384 37.0405 80.5519 37.1776C80.7193 37.3148 80.8665 37.4127 81.0131 37.4911C81.1597 37.5695 81.3484 37.6282 81.6 37.7066C81.8517 37.7849 82.0819 37.8241 82.3128 37.8241C82.9627 37.8241 83.4868 37.6674 83.885 37.3343C84.2832 37.0013 84.4927 36.5507 84.4927 36.0022C84.4927 35.7671 84.4506 35.5712 84.3669 35.3949C84.2832 35.2186 84.1782 35.0814 84.0523 34.9443C83.9265 34.8267 83.7592 34.7092 83.5704 34.6112C83.3817 34.5133 83.193 34.4349 82.9835 34.3761C82.774 34.2978 82.5852 34.239 82.4387 34.1999C82.2914 34.1411 82.1449 34.1019 81.9983 34.0627C81.8724 34.0236 81.7259 33.9648 81.5793 33.9256C81.4321 33.8864 81.2647 33.8276 81.0552 33.7493C80.8243 33.6709 80.6148 33.5533 80.4054 33.4162C80.1952 33.2791 80.0071 33.1028 79.8599 32.9069C79.7133 32.711 79.5667 32.4955 79.4831 32.2799C79.378 32.0449 79.3359 31.8098 79.3359 31.5355C79.3359 31.1045 79.4202 30.7127 79.5875 30.3993C79.7555 30.0858 79.9857 29.8115 80.2795 29.6156C80.5727 29.4002 80.908 29.2434 81.2855 29.1455C81.663 29.0475 82.0612 28.9888 82.4802 28.9888C82.8784 28.9888 83.2144 29.0279 83.4868 29.0867C83.7592 29.1455 83.9894 29.2239 84.1782 29.2826C84.3461 29.361 84.4927 29.4197 84.5764 29.4785C84.6607 29.5373 84.7236 29.5764 84.7236 29.5764C84.7444 29.5764 84.8073 29.5177 84.8909 29.4393C84.9746 29.3414 85.0589 29.2434 85.1218 29.1455H85.2684V31.3984H85.1218C85.0168 31.1241 84.8909 30.8694 84.7236 30.5952C84.5556 30.3209 84.3669 30.0858 84.1574 29.8899C83.9479 29.6744 83.6963 29.5177 83.4025 29.3806C83.1301 29.2434 82.8155 29.1847 82.4802 29.1847C82.2078 29.1847 81.9561 29.2239 81.7259 29.3022C81.495 29.3806 81.2855 29.4785 81.0968 29.6352C80.9294 29.7723 80.7822 29.9683 80.6778 30.1838C80.5727 30.3993 80.5312 30.6539 80.5312 30.9282C80.5312 31.3592 80.6778 31.7119 80.9502 31.9665C81.2226 32.2212 81.5793 32.4367 82.0404 32.5934C82.2078 32.6522 82.3757 32.711 82.5223 32.7698C82.6689 32.8285 82.8155 32.8677 82.9627 32.9069C83.1093 32.9461 83.2559 33.0048 83.4025 33.044C83.5497 33.0832 83.717 33.1419 83.885 33.2007C84.472 33.3966 84.9331 33.6905 85.2684 34.0823C85.6037 34.4741 85.7503 34.9443 85.7503 35.532C85.7296 35.9238 85.6459 36.2569 85.4779 36.5703Z" fill="#111827"/>
<path d="M22.9066 42.3886C22.697 42.7412 22.4874 43.1134 22.2987 43.4661V44.9746H21.6489V43.4661C21.4393 43.0938 21.2297 42.7412 21.041 42.3886C20.8314 42.0359 20.6427 41.6638 20.4331 41.3111H21.1668L21.6489 42.2123C21.7118 42.3298 21.7747 42.4474 21.8166 42.5649C21.8795 42.6825 21.9214 42.8 21.9843 42.9175H22.0053L22.3616 42.1927L22.8228 41.2915H23.5565C23.3259 41.6833 23.1163 42.0359 22.9066 42.3886Z" fill="#EF7D00"/>
<path d="M24.7326 42.3494C24.9422 42.3494 25.1309 42.3886 25.2986 42.4669C25.4662 42.5453 25.5921 42.6432 25.6969 42.7999C25.7597 42.8979 25.8226 43.035 25.8645 43.1722C25.9065 43.3093 25.9065 43.4856 25.9065 43.662C25.9065 43.8578 25.8855 44.0341 25.8645 44.1713C25.8226 44.3084 25.7807 44.4455 25.7178 44.5435C25.613 44.7002 25.4662 44.8374 25.2776 44.9158C25.089 44.9941 24.8793 45.0333 24.6697 45.0333C24.4601 45.0333 24.2714 44.9941 24.1037 44.9353C23.9361 44.8766 23.8103 44.759 23.7055 44.6219C23.5587 44.4064 23.4749 44.0929 23.4749 43.6815C23.4749 43.5444 23.4749 43.4073 23.4959 43.2701C23.5168 43.1526 23.5587 43.035 23.6007 42.937C23.7055 42.7412 23.8522 42.604 24.0409 42.4865C24.2505 42.3886 24.4811 42.3494 24.7326 42.3494ZM24.7116 42.8783C24.6068 42.8783 24.502 42.8979 24.4181 42.9566C24.3343 43.0154 24.2714 43.0742 24.2295 43.1722C24.1876 43.2505 24.1666 43.3289 24.1666 43.4073C24.1457 43.4856 24.1457 43.5836 24.1457 43.6815C24.1457 43.7795 24.1457 43.8774 24.1666 43.9558C24.1876 44.0341 24.2085 44.1125 24.2295 44.1713C24.2714 44.2692 24.3343 44.328 24.4181 44.3868C24.502 44.4455 24.6068 44.4651 24.7116 44.4651C24.8374 44.4651 24.9422 44.426 25.026 44.3672C25.1309 44.3084 25.1938 44.2104 25.2357 44.0929C25.2566 44.0341 25.2776 43.9754 25.2776 43.9166C25.2776 43.8382 25.2986 43.7403 25.2986 43.6424C25.2986 43.4464 25.2776 43.2897 25.2147 43.1917C25.1728 43.0938 25.1099 43.0154 25.026 42.9566C24.9003 42.9175 24.8164 42.8783 24.7116 42.8783Z" fill="#EF7D00"/>
<path d="M27.1606 42.3684V43.9161C27.1606 44.0924 27.2025 44.2295 27.2864 44.3079C27.3702 44.3862 27.496 44.445 27.6846 44.445C27.8314 44.445 27.9572 44.4058 28.062 44.3079C28.1668 44.2099 28.2087 44.0924 28.2087 43.9161V42.3684H28.8375V44.9935H28.2087V44.7388H28.1877C28.1039 44.8368 27.9991 44.9152 27.8523 44.9544C27.7266 44.9935 27.6008 45.0327 27.475 45.0327C27.1816 45.0327 26.9509 44.9544 26.7833 44.7976C26.6156 44.6409 26.5107 44.4058 26.5107 44.0924V42.3684H27.1606Z" fill="#EF7D00"/>
<path d="M30.7447 42.917C30.5979 42.917 30.4722 42.9561 30.3674 43.0541C30.2626 43.152 30.2207 43.2696 30.2207 43.4459V45.0131H29.5918V42.388H30.2207V42.7015H30.2416C30.4093 42.4663 30.6399 42.3684 30.9124 42.3684C31.0172 42.3684 31.122 42.388 31.2058 42.4076C31.2897 42.4272 31.3735 42.4663 31.4574 42.5055L31.2268 43.0541C31.1429 43.0149 31.0801 42.9757 30.9962 42.9561C30.8914 42.917 30.8285 42.917 30.7447 42.917Z" fill="#EF7D00"/>
<path d="M34.3929 42.3494C34.6025 42.3494 34.7911 42.3886 34.9589 42.4669C35.1265 42.5453 35.2523 42.6432 35.3571 42.7999C35.42 42.8979 35.4829 43.035 35.5248 43.1722C35.5667 43.3093 35.5667 43.4856 35.5667 43.662C35.5667 43.8578 35.5458 44.0341 35.5248 44.1713C35.4829 44.3084 35.441 44.4455 35.3781 44.5435C35.2733 44.7002 35.1265 44.8374 34.9379 44.9158C34.7492 44.9941 34.5396 45.0333 34.33 45.0333C34.1204 45.0333 33.9317 44.9941 33.764 44.9353C33.5963 44.8766 33.4705 44.759 33.3657 44.6219C33.219 44.4064 33.1351 44.0929 33.1351 43.6815C33.1351 43.5444 33.1351 43.4073 33.1561 43.2701C33.1771 43.1526 33.219 43.035 33.2609 42.937C33.3657 42.7412 33.5125 42.604 33.7011 42.4865C33.9108 42.3886 34.1413 42.3494 34.3929 42.3494ZM34.3719 42.8783C34.2671 42.8783 34.1623 42.8979 34.0784 42.9566C33.9946 43.0154 33.9317 43.0742 33.8898 43.1722C33.8479 43.2505 33.8269 43.3289 33.8269 43.4073C33.806 43.4856 33.806 43.5836 33.806 43.6815C33.806 43.7795 33.806 43.8774 33.8269 43.9558C33.8479 44.0341 33.8688 44.1125 33.8898 44.1713C33.9317 44.2692 33.9946 44.328 34.0784 44.3868C34.1623 44.4455 34.2671 44.4651 34.3719 44.4651C34.4977 44.4651 34.6025 44.426 34.6863 44.3672C34.7911 44.3084 34.8541 44.2104 34.896 44.0929C34.9169 44.0341 34.9379 43.9754 34.9379 43.9166C34.9379 43.8382 34.9589 43.7403 34.9589 43.6424C34.9589 43.4464 34.9379 43.2897 34.875 43.1917C34.833 43.0938 34.7702 43.0154 34.6863 42.9566C34.5815 42.9175 34.4767 42.8783 34.3719 42.8783Z" fill="#EF7D00"/>
<path d="M37.8761 44.9941V43.4464C37.8761 43.2701 37.8342 43.1526 37.7504 43.0546C37.6665 42.9566 37.5407 42.9174 37.3521 42.9174C37.2054 42.9174 37.0586 42.9566 36.9748 43.0546C36.87 43.1526 36.828 43.2701 36.828 43.4464V44.9941H36.1992V42.369H36.828V42.6432H36.849C36.9329 42.5453 37.0586 42.4669 37.1844 42.4277C37.3102 42.369 37.4569 42.3494 37.5827 42.3494C37.8761 42.3494 38.1067 42.4277 38.2744 42.5844C38.4421 42.7411 38.526 42.9762 38.526 43.2701V44.9941H37.8761Z" fill="#EF7D00"/>
<path d="M40.0139 44.9941C39.9088 44.9941 39.8038 44.9745 39.6988 44.9549C39.6148 44.9353 39.5308 44.8962 39.4467 44.8374C39.3837 44.7786 39.3207 44.7198 39.2787 44.6219C39.2367 44.5239 39.2157 44.426 39.2157 44.2888V41.1348H39.8669V44.1909C39.8669 44.2888 39.8879 44.3476 39.9299 44.3868C39.9719 44.426 40.0349 44.4456 40.14 44.4456H40.245V44.9745H40.0139V44.9941Z" fill="#EF7D00"/>
<path d="M40.7666 41.8591V41.3105H41.3968V41.8591H40.7666ZM40.7666 44.9936V42.3685H41.3968V44.9936H40.7666Z" fill="#EF7D00"/>
<path d="M43.8476 44.9941V43.4464C43.8476 43.2701 43.8057 43.1526 43.7218 43.0546C43.638 42.9566 43.5122 42.9174 43.3236 42.9174C43.1768 42.9174 43.051 42.9566 42.9462 43.0546C42.8414 43.1526 42.7995 43.2701 42.7995 43.4464V44.9941H42.1497V42.369H42.7995V42.6432H42.8205C42.9043 42.5453 43.0301 42.4669 43.1559 42.4277C43.2816 42.369 43.4284 42.3494 43.5542 42.3494C43.8476 42.3494 44.0782 42.4277 44.2459 42.5844C44.4136 42.7411 44.4974 42.9762 44.4974 43.2701V44.9941H43.8476Z" fill="#EF7D00"/>
<path d="M45.7106 43.8577C45.7106 43.9361 45.7316 44.0144 45.7526 44.0928C45.7735 44.1712 45.8154 44.23 45.8574 44.2887C45.8993 44.3475 45.9622 44.3867 46.046 44.4259C46.1299 44.4651 46.2137 44.4846 46.3185 44.4846C46.4024 44.4846 46.5072 44.4651 46.633 44.4259C46.7587 44.3867 46.8845 44.3279 46.9893 44.23C47.0522 44.3083 47.1151 44.3671 47.178 44.4455C47.2409 44.5238 47.3037 44.5826 47.3666 44.6609C47.1989 44.7981 47.0312 44.896 46.8426 44.9548C46.6539 45.0136 46.4862 45.0331 46.2976 45.0331C46.1508 45.0331 46.0041 45.0136 45.8574 44.9744C45.7106 44.9352 45.5848 44.8568 45.4591 44.7589C45.3333 44.6609 45.2495 44.5238 45.1656 44.3475C45.0817 44.1712 45.0608 43.9557 45.0608 43.6814C45.0608 43.4267 45.1027 43.2113 45.1656 43.0349C45.2495 42.8586 45.3333 42.7215 45.4591 42.6235C45.5848 42.5255 45.7106 42.4472 45.8574 42.3884C46.0041 42.3492 46.1508 42.3101 46.2976 42.3101C46.4862 42.3101 46.6539 42.3492 46.8007 42.408C46.9474 42.4668 47.0732 42.5451 47.178 42.6627C47.2828 42.7802 47.3666 42.8978 47.4085 43.0545C47.4714 43.2113 47.4924 43.3876 47.4924 43.5639V43.8185H45.7106V43.8577ZM46.2556 42.8978C46.1089 42.8978 45.9831 42.937 45.8783 43.0349C45.7735 43.1329 45.7316 43.27 45.7106 43.4463H46.7797C46.7587 43.27 46.7168 43.1329 46.612 43.0349C46.5281 42.937 46.4024 42.8978 46.2556 42.8978Z" fill="#EF7D00"/>
<path d="M51.876 43.6422C51.876 43.799 51.8551 43.9557 51.8341 44.1125C51.8132 44.2692 51.7712 44.4259 51.6874 44.563C51.6245 44.7001 51.5197 44.7981 51.3729 44.896C51.2472 44.9744 51.0585 45.0332 50.8489 45.0332C50.7231 45.0332 50.5973 45.0136 50.4716 44.9744C50.3458 44.9352 50.241 44.8569 50.1572 44.7589H50.1362V45.0136H49.4863V41.1738H50.1362V42.6431H50.1572C50.262 42.5452 50.3668 42.4864 50.4925 42.4276C50.6183 42.3884 50.7441 42.3688 50.8489 42.3688C51.0585 42.3688 51.2262 42.408 51.352 42.4864C51.4777 42.5648 51.5825 42.6627 51.6664 42.7999C51.7293 42.9174 51.7922 43.0545 51.8132 43.2113C51.8551 43.3288 51.876 43.4855 51.876 43.6422ZM51.2053 43.6814C51.2053 43.5835 51.2053 43.5051 51.1843 43.4071C51.1843 43.3092 51.1424 43.2308 51.1214 43.1525C51.0795 43.0741 51.0375 43.0154 50.9537 42.9762C50.8908 42.937 50.786 42.8978 50.6603 42.8978C50.5344 42.8978 50.4506 42.9174 50.3877 42.9762C50.3249 43.035 50.262 43.0937 50.22 43.1721C50.1781 43.2504 50.1572 43.3288 50.1572 43.4267C50.1362 43.5247 50.1362 43.6031 50.1362 43.6814C50.1362 43.7598 50.1362 43.8578 50.1572 43.9361C50.1572 44.0341 50.1991 44.1124 50.22 44.1908C50.262 44.2692 50.3039 44.3279 50.3877 44.3867C50.4506 44.4455 50.5554 44.465 50.6812 44.465C50.807 44.465 50.8908 44.4455 50.9747 44.3867C51.0375 44.3279 51.1004 44.2692 51.1423 44.1908C51.1843 44.1124 51.2053 44.0341 51.2053 43.9361C51.2053 43.8578 51.2053 43.7598 51.2053 43.6814Z" fill="#EF7D00"/>
<path d="M53.6589 42.917C53.5121 42.917 53.3864 42.9561 53.2815 43.0541C53.1767 43.152 53.1348 43.2696 53.1348 43.4459V45.0131H52.506V42.388H53.1348V42.7015H53.1558C53.3235 42.4663 53.5541 42.3684 53.8265 42.3684C53.9314 42.3684 54.0362 42.388 54.12 42.4076C54.2039 42.4272 54.2878 42.4663 54.3716 42.5055L54.141 43.0541C54.0572 43.0149 53.9943 42.9757 53.9104 42.9561C53.8056 42.917 53.7427 42.917 53.6589 42.917Z" fill="#EF7D00"/>
<path d="M55.7331 42.3494C55.9427 42.3494 56.1314 42.3886 56.2991 42.4669C56.4668 42.5453 56.5925 42.6432 56.6973 42.7999C56.7602 42.8979 56.8231 43.035 56.865 43.1722C56.907 43.3093 56.9069 43.4856 56.9069 43.662C56.9069 43.8578 56.886 44.0341 56.865 44.1713C56.8231 44.3084 56.7812 44.4455 56.7183 44.5435C56.6135 44.7002 56.4668 44.8374 56.2781 44.9158C56.0895 44.9941 55.8798 45.0333 55.6702 45.0333C55.4606 45.0333 55.2719 44.9941 55.1042 44.9353C54.9365 44.8766 54.8108 44.759 54.706 44.6219C54.5592 44.4064 54.4753 44.0929 54.4753 43.6815C54.4753 43.5444 54.4753 43.4073 54.4964 43.2701C54.5173 43.1526 54.5592 43.035 54.6012 42.937C54.706 42.7412 54.8527 42.604 55.0414 42.4865C55.251 42.3886 55.4816 42.3494 55.7331 42.3494ZM55.7121 42.8783C55.6073 42.8783 55.5025 42.8979 55.4186 42.9566C55.3348 43.0154 55.2719 43.0742 55.209 43.1722C55.1671 43.2505 55.1462 43.3289 55.1462 43.4073C55.1252 43.4856 55.1252 43.5836 55.1252 43.6815C55.1252 43.7795 55.1252 43.8774 55.1462 43.9558C55.1671 44.0341 55.1881 44.1125 55.209 44.1713C55.251 44.2692 55.3138 44.328 55.3977 44.3868C55.4816 44.4455 55.5864 44.4651 55.6912 44.4651C55.8169 44.4651 55.9217 44.426 56.0056 44.3672C56.1104 44.3084 56.1733 44.2104 56.2152 44.0929C56.2362 44.0341 56.2571 43.9754 56.2571 43.9166C56.2571 43.8382 56.2781 43.7403 56.2781 43.6424C56.2781 43.4464 56.2571 43.2897 56.1943 43.1917C56.1523 43.0938 56.0895 43.0154 56.0056 42.9566C55.9217 42.9175 55.8169 42.8783 55.7121 42.8783Z" fill="#EF7D00"/>
<path d="M59.4024 44.9941C59.2556 44.7982 59.1298 44.6023 58.9831 44.4064C58.8573 44.2104 58.7106 44.0145 58.5639 43.8187C58.501 43.8774 58.4381 43.9558 58.3752 44.0145C58.3123 44.0733 58.2494 44.1517 58.1865 44.2104V44.9745H57.5367V41.1348H58.1865V43.4465H58.2075L58.7525 42.8587L59.2346 42.369H60.0102L59.0041 43.3877C59.1927 43.662 59.3814 43.9166 59.57 44.1909C59.7587 44.4651 59.9474 44.7198 60.136 44.9941H59.4024Z" fill="#EF7D00"/>
<path d="M60.9729 43.8577C60.9729 43.9361 60.9939 44.0144 61.0149 44.0928C61.0358 44.1712 61.0777 44.23 61.1197 44.2887C61.1616 44.3475 61.2245 44.3867 61.3083 44.4259C61.3922 44.4651 61.476 44.4846 61.5808 44.4846C61.6647 44.4846 61.7695 44.4651 61.8953 44.4259C62.021 44.3867 62.1468 44.3279 62.2516 44.23C62.3145 44.3083 62.3774 44.3671 62.4403 44.4455C62.5032 44.5238 62.566 44.5826 62.6289 44.6609C62.4612 44.7981 62.2936 44.896 62.1049 44.9548C61.9162 45.0136 61.7486 45.0331 61.5599 45.0331C61.4131 45.0331 61.2664 45.0136 61.1197 44.9744C60.9729 44.9352 60.8472 44.8568 60.7214 44.7589C60.5957 44.6609 60.5118 44.5238 60.4279 44.3475C60.3651 44.1712 60.3231 43.9557 60.3231 43.6814C60.3231 43.4267 60.3651 43.2113 60.4279 43.0349C60.5118 42.8586 60.5957 42.7215 60.7214 42.6235C60.8472 42.5255 60.9729 42.4472 61.1197 42.3884C61.2664 42.3492 61.4131 42.3101 61.5599 42.3101C61.7486 42.3101 61.9162 42.3492 62.063 42.408C62.2097 42.4668 62.3355 42.5451 62.4403 42.6627C62.5451 42.7802 62.6289 42.8978 62.6708 43.0545C62.7338 43.2113 62.7547 43.3876 62.7547 43.5639V43.8185H60.9729V43.8577ZM61.5179 42.8978C61.3712 42.8978 61.2455 42.937 61.1407 43.0349C61.0358 43.1329 60.9939 43.27 60.9729 43.4463H62.042C62.021 43.27 61.9791 43.1329 61.8743 43.0349C61.7905 42.937 61.6647 42.8978 61.5179 42.8978Z" fill="#EF7D00"/>
<path d="M64.5374 42.917C64.3908 42.917 64.265 42.9561 64.1599 43.0541C64.0555 43.152 64.0133 43.2696 64.0133 43.4459V45.0131H63.3636V42.388H63.9926V42.7015H64.0133C64.1813 42.4663 64.4116 42.3684 64.684 42.3684C64.789 42.3684 64.8941 42.388 64.9778 42.4076C65.0614 42.4272 65.1457 42.4663 65.2294 42.5055L64.9985 43.0541C64.9148 43.0149 64.8519 42.9757 64.7683 42.9561C64.684 42.917 64.6003 42.917 64.5374 42.917Z" fill="#EF7D00"/>
<path d="M14.2931 34.3949C14.2931 34.9434 13.811 35.394 13.2241 35.394C12.6371 35.394 12.155 34.9434 12.155 34.3949C12.155 33.8463 12.6371 33.3958 13.2241 33.3958C13.811 33.4153 14.2931 33.8463 14.2931 34.3949Z" fill="#111827"/>
<defs>
<linearGradient id="paint0_linear_2_2061" x1="43.3845" y1="0.250138" x2="43.3845" y2="26.9916" gradientUnits="userSpaceOnUse">
<stop stop-color="#F39200"/>
<stop offset="1" stop-color="#F07E00"/>
</linearGradient>
</defs>
</svg>
