<svg width="40" height="40" viewBox="0 0 40 40" fill="none" xmlns="http://www.w3.org/2000/svg">
<path d="M6.02179 32.9967L15.8111 7.88158C16.0207 7.35263 16.5657 7 17.1736 7H21.366C21.9739 7 22.5189 7.35263 22.7285 7.88158L28.3044 22.2023H30.4635C30.9037 22.2023 31.302 22.457 31.4487 22.8488L32.3082 25.0625C32.392 25.2781 32.2244 25.4935 31.9728 25.4935H29.5832L30.1072 26.8061H32.2663C32.7065 26.8061 33.1048 27.0608 33.2515 27.4526L34.111 29.6663C34.1948 29.8818 34.0271 30.0973 33.7756 30.0973H31.3859L32.4968 32.9575C32.5807 33.173 32.413 33.3885 32.1615 33.3885H27.8014C27.3612 33.3885 26.9629 33.1338 26.8161 32.7421L25.789 30.0778H12.6039C12.3524 30.0778 12.1847 29.8426 12.2685 29.6467L13.1279 27.433C13.2747 27.0412 13.6729 26.7865 14.1131 26.7865H24.4894L23.9653 25.474H14.3857C14.1341 25.474 13.9664 25.2389 14.0503 25.0429L14.9097 22.8292C15.0564 22.4374 15.4547 22.1827 15.8949 22.1827H22.6657L18.5361 11.5646C18.4313 11.2708 17.9911 11.2708 17.8654 11.5646L9.6273 32.7812C9.48053 33.173 9.08224 33.4277 8.64205 33.4277H6.35717C6.10565 33.4277 5.93799 33.1926 6.02179 32.9967Z" fill="url(#paint0_linear_505_8)"/>
<defs>
<linearGradient id="paint0_linear_505_8" x1="20.0631" y1="7.21669" x2="20.0631" y2="33.9581" gradientUnits="userSpaceOnUse">
<stop stop-color="#F39200"/>
<stop offset="1" stop-color="#F07E00"/>
</linearGradient>
</defs>
</svg>
